<svg xmlns="http://www.w3.org/2000/svg" xmlns:xlink="http://www.w3.org/1999/xlink" width="500" zoomAndPan="magnify" viewBox="0 0 375 60" height="80" preserveAspectRatio="xMidYMid meet" version="1.0"><defs><g/></defs><g fill="#222222" fill-opacity="1"><g transform="translate(0.962891, 46.125892)"><g><path d="M 36.65625 -2.578125 L 37 -1.625 L 36.1875 -1.625 L 36.28125 -1.390625 C 36.28125 -1.359375 36.285156 -1.316406 36.296875 -1.265625 C 36.316406 -1.210938 36.328125 -1.171875 36.328125 -1.140625 L 36.03125 -1.140625 L 36.03125 -1.046875 C 36.03125 -0.671875 35.890625 -0.382812 35.609375 -0.1875 L 35.65625 -0.1875 C 35.5 -0.0625 35.289062 0 35.03125 0 L 26.1875 0 C 25.96875 0 25.785156 -0.0195312 25.640625 -0.0625 C 25.492188 -0.113281 25.34375 -0.15625 25.1875 -0.1875 C 24.9375 -0.3125 24.742188 -0.460938 24.609375 -0.640625 C 24.484375 -0.816406 24.390625 -0.984375 24.328125 -1.140625 L 24.5625 -1.140625 L 24.5625 -1.1875 L 24.46875 -1.390625 L 24.375 -1.625 L 25.1875 -1.625 L 24.859375 -2.578125 L 23.953125 -2.578125 L 23.796875 -3.0625 L 25.765625 -3.0625 L 25.421875 -4.015625 L 24.859375 -4.015625 L 24.71875 -4.34375 L 14.4375 -4.34375 L 14.34375 -4.015625 L 13.765625 -4.015625 L 13.4375 -3.0625 L 12.90625 -3.0625 L 12.71875 -2.578125 L 12.421875 -2.578125 L 12.09375 -1.625 L 12.140625 -1.625 L 12.046875 -1.390625 L 12 -1.1875 L 11.953125 -1.140625 L 11.703125 -1.140625 C 11.640625 -0.984375 11.546875 -0.816406 11.421875 -0.640625 C 11.296875 -0.460938 11.101562 -0.3125 10.84375 -0.1875 L 12.28125 -0.1875 C 12.15625 -0.15625 12.007812 -0.113281 11.84375 -0.0625 C 11.6875 -0.0195312 11.5 0 11.28125 0 L 2.4375 0 C 2.1875 0 1.992188 -0.0625 1.859375 -0.1875 L 0.4375 -0.1875 C 0.113281 -0.414062 -0.046875 -0.703125 -0.046875 -1.046875 L -0.046875 -1.140625 L 0.234375 -1.140625 C 0.234375 -1.242188 0.25 -1.328125 0.28125 -1.390625 L 0.328125 -1.625 L 0.28125 -1.625 L 0.625 -2.578125 L 0.90625 -2.578125 L 1.09375 -3.0625 L 1.625 -3.0625 L 1.953125 -4.015625 L 2.484375 -4.015625 L 2.8125 -4.96875 L 0.953125 -4.96875 L 1.140625 -5.453125 L 1 -5.453125 L 1.25 -6.171875 L 1.71875 -6.171875 L 1.8125 -6.40625 L 0.765625 -6.40625 L 1.09375 -7.359375 L 2.71875 -7.359375 L 2.875 -7.84375 L 1.390625 -7.84375 L 1.484375 -8.078125 L 1.71875 -8.078125 L 2.0625 -9.03125 L 1.90625 -9.03125 L 2.15625 -9.75 L 2.34375 -9.75 L 2.671875 -10.703125 L 3.296875 -10.703125 L 3.53125 -11.421875 L 3.625 -11.65625 L 6.015625 -11.65625 L 6.125 -11.90625 L 5.96875 -11.90625 L 6.21875 -12.625 L 3.53125 -12.625 L 3.875 -13.578125 L 4.734375 -13.578125 L 4.828125 -13.8125 L 4.296875 -13.8125 L 4.390625 -14.046875 L 5.921875 -14.046875 L 6.265625 -15.015625 L 4.390625 -15.015625 L 4.59375 -15.484375 L 5.3125 -15.484375 L 5.640625 -16.4375 L 5.203125 -16.4375 L 5.453125 -17.15625 L 5.96875 -17.15625 L 6.3125 -18.109375 L 6.171875 -18.109375 L 6.265625 -18.359375 L 5.15625 -18.359375 L 5.359375 -18.828125 L 6.40625 -18.828125 L 6.640625 -19.546875 L 6.171875 -19.546875 L 6.21875 -19.78125 L 7.078125 -19.78125 L 7.40625 -20.75 L 6.359375 -20.75 L 6.59375 -21.453125 L 6.0625 -21.453125 L 6.21875 -21.9375 L 2.921875 -21.9375 L 3.0625 -22.421875 L 2.4375 -22.421875 L 2.765625 -23.375 L 2.15625 -23.375 L 2.4375 -24.09375 L 4.296875 -24.09375 L 4.640625 -25.046875 L 9.421875 -25.046875 L 9.65625 -25.765625 L 7.359375 -25.765625 L 7.546875 -26.234375 L 9.328125 -26.234375 L 9.65625 -27.203125 L 8.078125 -27.203125 L 8.3125 -27.90625 L 9.328125 -27.90625 L 9.65625 -28.875 L 9.515625 -28.875 L 9.84375 -29.828125 L 8.515625 -29.828125 L 8.5625 -30.0625 L 13.140625 -30.0625 L 13.484375 -31.015625 L 13.328125 -31.015625 L 13.4375 -31.265625 L 11.765625 -31.265625 L 11.953125 -31.875 L 12.09375 -32.21875 L 12.578125 -32.21875 L 12.859375 -32.6875 L 12.71875 -32.6875 C 12.875 -32.914062 13.09375 -33.097656 13.375 -33.234375 C 13.664062 -33.378906 14.019531 -33.453125 14.4375 -33.453125 L 24.8125 -33.453125 C 25.21875 -33.453125 25.5625 -33.378906 25.84375 -33.234375 C 26.132812 -33.097656 26.363281 -32.914062 26.53125 -32.6875 L 26.71875 -32.6875 L 27 -32.21875 L 26.53125 -32.21875 C 26.59375 -32.09375 26.625 -31.976562 26.625 -31.875 L 26.859375 -31.265625 L 28.53125 -31.265625 L 28.578125 -31.015625 L 28.71875 -31.015625 L 29.0625 -30.0625 L 24.515625 -30.0625 L 24.609375 -29.828125 L 25.953125 -29.828125 L 26.28125 -28.875 L 26.4375 -28.875 L 26.765625 -27.90625 L 25.765625 -27.90625 L 26 -27.203125 L 27.578125 -27.203125 L 27.90625 -26.234375 L 26.140625 -26.234375 L 26.34375 -25.765625 L 28.625 -25.765625 L 28.875 -25.046875 L 24.09375 -25.046875 L 24.421875 -24.09375 L 22.5625 -24.09375 L 22.796875 -23.375 L 23.375 -23.375 L 23.703125 -22.421875 L 21.84375 -22.421875 L 22.03125 -21.9375 L 29.640625 -21.9375 L 29.78125 -21.453125 L 29.390625 -21.453125 L 29.640625 -20.75 L 28.671875 -20.75 L 29.015625 -19.78125 L 27.859375 -19.78125 L 27.90625 -19.546875 L 29.640625 -19.546875 L 29.875 -18.828125 L 29.921875 -18.828125 L 30.109375 -18.359375 L 28.53125 -18.359375 L 28.625 -18.109375 L 30.15625 -18.109375 L 30.5 -17.15625 L 31.015625 -17.15625 L 31.265625 -16.4375 L 31.109375 -16.4375 L 31.453125 -15.484375 L 32.21875 -15.484375 L 32.40625 -15.015625 L 31.015625 -15.015625 L 31.359375 -14.046875 L 32.3125 -14.046875 L 32.359375 -13.8125 L 32.125 -13.8125 L 32.21875 -13.578125 L 31.359375 -13.578125 L 31.640625 -12.625 L 34.359375 -12.625 L 34.609375 -11.90625 L 34.75 -11.90625 L 34.84375 -11.65625 L 32.40625 -11.65625 L 32.5 -11.421875 L 32.546875 -11.421875 L 32.78125 -10.703125 L 32.171875 -10.703125 L 32.5 -9.75 L 32.265625 -9.75 L 32.546875 -9.03125 L 32.6875 -9.03125 L 33.03125 -8.078125 L 32.78125 -8.078125 L 32.890625 -7.84375 L 34.359375 -7.84375 L 34.5625 -7.359375 L 32.890625 -7.359375 L 33.21875 -6.40625 L 34.265625 -6.40625 L 34.359375 -6.171875 L 33.890625 -6.171875 L 34.171875 -5.453125 L 34.265625 -5.453125 L 34.46875 -4.96875 L 36.328125 -4.96875 L 36.65625 -4.015625 L 37.234375 -4.015625 L 37.5625 -3.0625 L 35.609375 -3.0625 L 35.75 -2.578125 Z M 16.6875 -21.453125 L 17.25 -21.453125 L 17.015625 -20.75 L 18.96875 -20.75 L 18.734375 -21.453125 L 19.125 -21.453125 L 18.96875 -21.9375 L 16.828125 -21.9375 Z M 18.265625 -19.78125 L 18.015625 -20.59375 L 17.78125 -19.78125 Z M 15.390625 -14.046875 L 15.296875 -13.8125 L 15.828125 -13.8125 L 15.765625 -13.671875 L 21.171875 -13.671875 L 21.125 -13.8125 L 21.359375 -13.8125 L 21.3125 -14.046875 L 20.359375 -14.046875 L 20.078125 -15.015625 L 21.453125 -15.015625 L 21.3125 -15.484375 L 20.5 -15.484375 L 20.21875 -16.4375 L 20.359375 -16.4375 L 20.171875 -17.15625 L 19.640625 -17.15625 L 19.359375 -18.109375 L 17.828125 -18.109375 L 17.734375 -18.359375 L 19.3125 -18.359375 L 19.171875 -18.828125 L 19.125 -18.828125 L 18.875 -19.546875 L 17.34375 -19.546875 L 17.15625 -18.828125 L 16.109375 -18.828125 L 15.96875 -18.359375 L 17.015625 -18.359375 L 16.96875 -18.109375 L 17.109375 -18.109375 L 16.828125 -17.15625 L 16.296875 -17.15625 L 16.0625 -16.4375 L 16.484375 -16.4375 L 16.203125 -15.484375 L 15.484375 -15.484375 L 15.34375 -15.015625 L 17.203125 -15.015625 L 16.921875 -14.046875 Z M 15.390625 -14.046875 "/></g></g></g><g fill="#222222" fill-opacity="1"><g transform="translate(37.045658, 46.125892)"><g><path d="M 1.671875 -32.21875 C 1.703125 -32.3125 1.722656 -32.394531 1.734375 -32.46875 C 1.753906 -32.550781 1.78125 -32.625 1.8125 -32.6875 L -3.4375 -32.6875 C -3.375 -32.789062 -3.3125 -32.878906 -3.25 -32.953125 C -3.1875 -33.035156 -3.125 -33.109375 -3.0625 -33.171875 L 2.484375 -33.171875 C 2.742188 -33.359375 3.015625 -33.453125 3.296875 -33.453125 L 12.859375 -33.453125 C 13.210938 -33.453125 13.484375 -33.359375 13.671875 -33.171875 L 8.125 -33.171875 C 8.1875 -33.109375 8.253906 -33.035156 8.328125 -32.953125 C 8.410156 -32.878906 8.472656 -32.789062 8.515625 -32.6875 L 13.71875 -32.6875 C 13.78125 -32.5 13.8125 -32.34375 13.8125 -32.21875 L 16.484375 -32.21875 C 16.515625 -32.21875 16.53125 -32.207031 16.53125 -32.1875 C 16.53125 -32.175781 16.53125 -32.171875 16.53125 -32.171875 L 16.53125 -31.734375 L 10.078125 -31.734375 L 10.078125 -30.78125 L 12.765625 -30.78125 L 12.765625 -30.0625 L 12.46875 -30.0625 L 12.46875 -29.109375 L 10.75 -29.109375 L 10.75 -28.15625 L 14.625 -28.15625 L 14.625 -27.90625 L 14.90625 -27.90625 L 14.90625 -26.953125 L 15.109375 -26.953125 L 15.109375 -26 L 14.765625 -26 L 14.765625 -25.046875 L 14.53125 -25.046875 L 14.53125 -23.84375 L 15.34375 -23.84375 L 15.34375 -22.890625 L 14.4375 -22.890625 L 14.4375 -21.9375 L 14.625 -21.9375 L 14.625 -21.703125 L 18.015625 -21.703125 L 18.015625 -20.75 L 19.78125 -20.75 L 19.78125 -20.265625 L 12.421875 -20.265625 L 12.421875 -19.78125 L 14.859375 -19.78125 L 14.859375 -18.828125 L 12.859375 -18.828125 L 12.859375 -17.875 L 14.578125 -17.875 L 14.578125 -17.390625 L 14.90625 -17.390625 L 14.90625 -16.6875 L 21.3125 -16.6875 L 21.3125 -16.203125 L 25.765625 -16.203125 L 25.765625 -15.25 L 13.625 -15.25 L 13.625 -16.203125 L 9.171875 -16.203125 L 9.171875 -16.6875 L 2.765625 -16.6875 L 2.765625 -17.390625 L 2.4375 -17.390625 L 2.4375 -17.875 L 0.71875 -17.875 L 0.71875 -18.828125 L 2.71875 -18.828125 L 2.71875 -19.78125 L 0.28125 -19.78125 L 0.28125 -20.265625 L 7.640625 -20.265625 L 7.640625 -20.75 L 5.875 -20.75 L 5.875 -21.703125 L 2.484375 -21.703125 L 2.484375 -21.9375 L 2.296875 -21.9375 L 2.296875 -22.890625 L 3.203125 -22.890625 L 3.203125 -23.84375 L 2.390625 -23.84375 L 2.390625 -25.046875 L 2.625 -25.046875 L 2.625 -26 L 2.96875 -26 L 2.96875 -26.953125 L 2.765625 -26.953125 L 2.765625 -27.90625 L 2.484375 -27.90625 L 2.484375 -28.15625 L -1.390625 -28.15625 L -1.390625 -29.109375 L 0.328125 -29.109375 L 0.328125 -30.0625 L 0.625 -30.0625 L 0.625 -30.78125 L -2.0625 -30.78125 L -2.0625 -31.734375 L 4.390625 -31.734375 L 4.390625 -32.21875 Z M 33.453125 -6.40625 L 20.40625 -6.40625 L 20.40625 -6.171875 L 21.359375 -6.171875 L 21.359375 -5.453125 L 28.15625 -5.453125 L 28.15625 -5.203125 L 26.046875 -5.203125 L 26.046875 -4.25 L 29.390625 -4.25 L 29.390625 -3.53125 L 29.875 -3.53125 L 29.875 -3.296875 L 29.53125 -3.296875 L 29.53125 -3.0625 L 29.390625 -3.0625 L 29.390625 -2.109375 L 29.484375 -2.109375 L 29.484375 -1.390625 L 29.296875 -1.390625 L 29.296875 -1.140625 L 29.0625 -1.140625 C 29.03125 -1.078125 29.015625 -1 29.015625 -0.90625 L 29.53125 -0.90625 C 29.4375 -0.59375 29.265625 -0.351562 29.015625 -0.1875 L 28.484375 -0.1875 C 28.328125 -0.0625 28.101562 0 27.8125 0 L 3.734375 0 C 3.441406 0 3.21875 -0.0625 3.0625 -0.1875 L 3.53125 -0.1875 C 3.25 -0.351562 3.0625 -0.59375 2.96875 -0.90625 L 2.4375 -0.90625 C 2.4375 -0.96875 2.425781 -1.015625 2.40625 -1.046875 C 2.394531 -1.078125 2.390625 -1.109375 2.390625 -1.140625 L 2.625 -1.140625 L 2.625 -1.390625 L 2.8125 -1.390625 L 2.8125 -2.109375 L 2.71875 -2.109375 L 2.71875 -3.0625 L 2.875 -3.0625 L 2.875 -3.296875 L 3.203125 -3.296875 L 3.203125 -3.53125 L 2.71875 -3.53125 L 2.71875 -4.25 L -0.625 -4.25 L -0.625 -5.203125 L 1.484375 -5.203125 L 1.484375 -5.453125 L -5.3125 -5.453125 L -5.3125 -6.171875 L -6.265625 -6.171875 L -6.265625 -6.40625 L 6.78125 -6.40625 L 6.78125 -7.125 L 1.484375 -7.125 L 1.484375 -7.84375 L 6.640625 -7.84375 L 6.640625 -8.078125 L -4.640625 -8.078125 L -4.640625 -8.796875 L -3.015625 -8.796875 L -3.015625 -9.03125 L 3.203125 -9.03125 L 3.203125 -9.265625 L 1 -9.265625 L 1 -9.984375 L 4.734375 -9.984375 L 4.734375 -10.953125 L 0.953125 -10.953125 L 0.953125 -11.421875 L 4.0625 -11.421875 L 4.0625 -11.65625 L 2.625 -11.65625 L 2.625 -12.375 L 4.015625 -12.375 L 4.015625 -12.859375 L 2.25 -12.859375 L 2.25 -13.328125 L 6.40625 -13.328125 L 6.40625 -14.046875 L 7.59375 -14.046875 L 7.59375 -14.53125 L 1.046875 -14.53125 L 1.046875 -15.25 L 13.1875 -15.25 L 13.1875 -14.53125 L 19.734375 -14.53125 L 19.734375 -14.046875 L 18.546875 -14.046875 L 18.546875 -13.328125 L 14.390625 -13.328125 L 14.390625 -12.859375 L 16.15625 -12.859375 L 16.15625 -12.375 L 14.765625 -12.375 L 14.765625 -11.65625 L 16.203125 -11.65625 L 16.203125 -11.421875 L 13.09375 -11.421875 L 13.09375 -10.953125 L 16.875 -10.953125 L 16.875 -9.984375 L 13.140625 -9.984375 L 13.140625 -9.796875 L 26.390625 -9.796875 C 26.828125 -9.796875 27.175781 -9.617188 27.4375 -9.265625 L 29.640625 -9.265625 L 29.78125 -9.03125 L 23.5625 -9.03125 L 23.65625 -8.796875 L 21.984375 -8.796875 C 22.015625 -8.734375 22.03125 -8.640625 22.03125 -8.515625 L 22.03125 -8.078125 L 33.3125 -8.078125 L 33.3125 -7.84375 L 28.15625 -7.84375 L 28.15625 -7.125 L 33.453125 -7.125 Z M 33.453125 -6.40625 "/></g></g></g><g fill="#222222" fill-opacity="1"><g transform="translate(66.963295, 46.125892)"><g><path d="M 46.5 -11.421875 L 36.03125 -11.421875 L 36.03125 -10.953125 L 44.5 -10.953125 L 44.5 -9.984375 L 40.765625 -9.984375 L 40.765625 -9.75 L 37.046875 -9.75 L 37.046875 -9.03125 L 34.609375 -9.03125 L 34.609375 -8.3125 L 33.546875 -8.3125 L 33.546875 -7.59375 L 28.53125 -7.59375 L 28.53125 -6.640625 L 36.03125 -6.640625 L 36.03125 -5.6875 L 32.21875 -5.6875 L 32.21875 -5.203125 L 35.5625 -5.203125 L 35.5625 -4.734375 L 37.5625 -4.734375 L 37.5625 -4.015625 L 38.28125 -4.015625 L 38.28125 -3.296875 L 38.953125 -3.296875 L 38.953125 -2.8125 L 39 -2.8125 L 39 -1.859375 L 40 -1.859375 L 40 -1.625 L 39.484375 -1.625 L 39.484375 -1.390625 L 38.28125 -1.390625 L 38.28125 -1.140625 L 35.515625 -1.140625 L 35.375 -0.671875 L 33.890625 -0.671875 C 33.765625 -0.441406 33.617188 -0.28125 33.453125 -0.1875 L 35.21875 -0.1875 C 35.0625 -0.0625 34.84375 0 34.5625 0 L 25.90625 0 C 25.613281 0 25.390625 -0.0625 25.234375 -0.1875 L 23.421875 -0.1875 C 23.265625 -0.28125 23.117188 -0.441406 22.984375 -0.671875 L 24.421875 -0.671875 C 24.328125 -0.828125 24.28125 -0.984375 24.28125 -1.140625 L 27.046875 -1.140625 L 27.046875 -1.390625 L 28.25 -1.390625 L 28.25 -1.625 L 28.78125 -1.625 L 28.78125 -1.859375 L 27.765625 -1.859375 L 27.765625 -2.8125 L 27.71875 -2.8125 L 27.71875 -3.296875 L 27.046875 -3.296875 L 27.046875 -4.015625 L 26.34375 -4.015625 L 26.34375 -4.734375 L 24.328125 -4.734375 L 24.328125 -5.203125 L 20.984375 -5.203125 L 20.984375 -5.6875 L 24.8125 -5.6875 L 24.8125 -6.640625 L 7.890625 -6.640625 L 7.890625 -5.6875 L 14.71875 -5.6875 L 14.71875 -5.203125 L 13.71875 -5.203125 L 13.71875 -4.015625 L 13.90625 -4.015625 L 13.90625 -3.296875 L 13 -3.296875 L 13 -2.8125 L 12.671875 -2.8125 L 12.671875 -1.859375 L 12.8125 -1.859375 L 12.8125 -1.625 L 16.34375 -1.625 L 16.34375 -1.390625 L 13.390625 -1.390625 L 13.390625 -1.140625 L 15.109375 -1.140625 C 15.109375 -0.984375 15.054688 -0.828125 14.953125 -0.671875 L 12.328125 -0.671875 C 12.234375 -0.441406 12.078125 -0.28125 11.859375 -0.1875 L 11.5625 -0.1875 C 11.40625 -0.0625 11.164062 0 10.84375 0 L 2.203125 0 C 1.910156 0 1.6875 -0.0625 1.53125 -0.1875 L 1.859375 -0.1875 C 1.765625 -0.25 1.675781 -0.320312 1.59375 -0.40625 C 1.519531 -0.488281 1.453125 -0.578125 1.390625 -0.671875 L 4.0625 -0.671875 C 3.96875 -0.828125 3.921875 -0.984375 3.921875 -1.140625 L 2.15625 -1.140625 L 2.15625 -1.390625 L 5.109375 -1.390625 L 5.109375 -1.625 L 1.578125 -1.625 L 1.578125 -1.859375 L 1.4375 -1.859375 L 1.4375 -2.8125 L 1.765625 -2.8125 L 1.765625 -3.296875 L 2.671875 -3.296875 L 2.671875 -4.015625 L 2.484375 -4.015625 L 2.484375 -5.203125 L 3.484375 -5.203125 L 3.484375 -5.6875 L -3.34375 -5.6875 L -3.34375 -6.640625 L 6.984375 -6.640625 L 6.984375 -7.59375 L -2.4375 -7.59375 L -2.4375 -8.3125 L -2.671875 -8.3125 L -2.671875 -9.03125 L 1.25 -9.03125 L 1.25 -9.75 L 2.625 -9.75 L 2.625 -9.984375 L -0.4375 -9.984375 L -0.4375 -10.953125 L 6.265625 -10.953125 L 6.265625 -11.421875 L 10.953125 -11.421875 L 10.796875 -11.65625 L 2.296875 -11.65625 L 2.296875 -11.90625 L 3.875 -11.90625 L 3.875 -12.140625 L 2.671875 -12.140625 L 2.671875 -13.09375 L 2.71875 -13.09375 L 2.71875 -13.578125 L 3.828125 -13.578125 L 3.828125 -14.296875 L 3.578125 -14.296875 L 3.578125 -15.25 L 2.296875 -15.25 L 2.296875 -15.484375 L -2 -15.484375 L -2 -15.96875 L 1.71875 -15.96875 L 1.71875 -16.203125 L 1.578125 -16.203125 L 1.578125 -16.6875 L 3.6875 -16.6875 L 3.6875 -17.15625 L 4.828125 -17.15625 L 4.828125 -17.875 L -2.71875 -17.875 L -2.71875 -18.828125 L 3.296875 -18.828125 L 3.296875 -19.3125 L -2.0625 -19.3125 L -2.0625 -20.03125 L 3.484375 -20.03125 L 3.484375 -20.5 L 2.8125 -20.5 L 2.8125 -20.984375 L 1 -20.984375 L 1 -21.21875 L 1.90625 -21.21875 L 1.90625 -21.9375 L 7.40625 -21.9375 L 7.40625 -22.65625 L 6.59375 -22.65625 L 6.59375 -23.140625 L 2.0625 -23.140625 L 2.0625 -23.375 L 1.8125 -23.375 L 1.8125 -24.09375 L 4.0625 -24.09375 L 4.0625 -25.046875 L -0.90625 -25.046875 L -0.90625 -25.53125 L 0.8125 -25.53125 L 0.8125 -25.765625 L 1.296875 -25.765625 L 1.296875 -26.234375 L 0.1875 -26.234375 L 0.1875 -26.953125 L 4.5 -26.953125 L 4.5 -27.671875 L 2.296875 -27.671875 L 2.296875 -28.625 L 5.921875 -28.625 L 5.921875 -28.875 L 4.78125 -28.875 L 4.78125 -29.828125 L 9.03125 -29.828125 L 9.03125 -30.546875 L -0.953125 -30.546875 L -0.953125 -31.265625 L 9.65625 -31.265625 L 9.65625 -31.96875 L 4.96875 -31.96875 L 4.96875 -32.453125 L 1.390625 -32.453125 C 1.421875 -32.609375 1.472656 -32.742188 1.546875 -32.859375 C 1.628906 -32.972656 1.71875 -33.078125 1.8125 -33.171875 L 2.0625 -33.171875 C 2.25 -33.359375 2.519531 -33.453125 2.875 -33.453125 L 10.421875 -33.453125 C 10.867188 -33.453125 11.234375 -33.359375 11.515625 -33.171875 L 11.28125 -33.171875 C 11.46875 -33.078125 11.625 -32.960938 11.75 -32.828125 C 11.882812 -32.703125 11.984375 -32.578125 12.046875 -32.453125 L 15.671875 -32.453125 L 15.875 -32.171875 L 15.96875 -31.96875 L 20.703125 -31.96875 L 21.125 -31.265625 L 10.515625 -31.265625 L 10.953125 -30.546875 L 20.890625 -30.546875 L 21.3125 -29.828125 L 17.109375 -29.828125 L 17.6875 -28.875 L 18.828125 -28.875 L 18.96875 -28.625 L 15.34375 -28.625 L 15.921875 -27.671875 L 18.0625 -27.671875 L 18.5 -26.953125 L 14.25 -26.953125 L 14.671875 -26.234375 L 15.765625 -26.234375 L 16.0625 -25.765625 L 15.578125 -25.765625 L 15.71875 -25.53125 L 14 -25.53125 L 14.296875 -25.046875 L 19.265625 -25.046875 L 19.828125 -24.09375 L 17.59375 -24.09375 L 18.015625 -23.375 L 18.265625 -23.375 L 18.40625 -23.140625 L 21.9375 -23.140625 L 22.078125 -23.375 L 20.796875 -23.375 L 21.21875 -24.09375 L 22.796875 -24.09375 L 23.375 -25.046875 L 22.515625 -25.046875 L 22.796875 -25.53125 L 18.921875 -25.53125 L 19.078125 -25.765625 L 23.90625 -25.765625 L 24.1875 -26.234375 L 23.796875 -26.234375 L 24.234375 -26.953125 L 27.09375 -26.953125 L 27.53125 -27.671875 L 27.671875 -27.671875 L 28.25 -28.625 L 26.046875 -28.625 L 26.1875 -28.875 L 31.21875 -28.875 L 31.78125 -29.828125 L 31.5 -29.828125 L 31.921875 -30.546875 L 24.5625 -30.546875 L 25 -31.265625 L 32.078125 -31.265625 L 32.5 -31.96875 L 27.296875 -31.96875 L 27.390625 -32.171875 C 27.453125 -32.296875 27.515625 -32.390625 27.578125 -32.453125 L 27.671875 -32.453125 C 27.765625 -32.578125 27.875 -32.703125 28 -32.828125 C 28.132812 -32.960938 28.28125 -33.078125 28.4375 -33.171875 L 28.34375 -33.171875 C 28.632812 -33.359375 29 -33.453125 29.4375 -33.453125 L 37 -33.453125 C 37.3125 -33.453125 37.582031 -33.359375 37.8125 -33.171875 L 37.953125 -33.171875 C 38.046875 -33.078125 38.128906 -32.972656 38.203125 -32.859375 C 38.285156 -32.742188 38.34375 -32.609375 38.375 -32.453125 L 38.28125 -32.453125 L 38.28125 -31.96875 L 43.546875 -31.96875 L 43.546875 -31.265625 L 36.46875 -31.265625 L 36.46875 -30.546875 L 43.828125 -30.546875 L 43.828125 -29.828125 L 44.109375 -29.828125 L 44.109375 -28.875 L 39.09375 -28.875 L 39.09375 -28.625 L 41.296875 -28.625 L 41.296875 -27.671875 L 41.15625 -27.671875 L 41.15625 -26.953125 L 38.28125 -26.953125 L 38.28125 -26.234375 L 38.671875 -26.234375 L 38.671875 -25.765625 L 33.84375 -25.765625 L 33.84375 -25.53125 L 37.71875 -25.53125 L 37.71875 -25.046875 L 38.578125 -25.046875 L 38.578125 -24.09375 L 37.046875 -24.09375 L 37.046875 -23.375 L 38.28125 -23.375 L 38.28125 -23.140625 L 40.53125 -23.140625 L 40.53125 -22.65625 L 35.609375 -22.65625 L 35.609375 -21.9375 L 39.140625 -21.9375 L 39.140625 -21.21875 L 38.28125 -21.21875 L 38.28125 -20.984375 L 38.46875 -20.984375 L 38.46875 -20.5 L 39.140625 -20.5 L 39.140625 -20.03125 L 33.59375 -20.03125 L 33.59375 -19.3125 L 38.953125 -19.3125 L 38.953125 -18.828125 L 32.9375 -18.828125 L 32.9375 -17.875 L 40.484375 -17.875 L 40.484375 -17.15625 L 39.34375 -17.15625 L 39.34375 -16.6875 L 37.234375 -16.6875 L 37.234375 -16.203125 L 37.375 -16.203125 L 37.375 -15.96875 L 33.65625 -15.96875 L 33.65625 -15.484375 L 37.953125 -15.484375 L 37.953125 -15.25 L 39.234375 -15.25 L 39.234375 -14.296875 L 38.140625 -14.296875 L 38.140625 -13.578125 L 37.328125 -13.578125 L 37.328125 -13.09375 L 38.28125 -13.09375 L 38.28125 -12.140625 L 38.71875 -12.140625 L 38.71875 -11.90625 L 40.765625 -11.90625 L 40.765625 -11.65625 L 46.5 -11.65625 Z M 24.140625 -23.140625 L 22.9375 -23.140625 L 23.234375 -22.65625 L 23.84375 -22.65625 Z M 18.5 -21.21875 L 18.640625 -20.984375 L 20.5 -20.984375 L 20.640625 -20.703125 L 20.84375 -20.984375 L 20.640625 -20.984375 L 20.796875 -21.21875 L 21.609375 -21.21875 L 22.03125 -21.9375 L 19.015625 -21.9375 L 19.453125 -21.21875 Z M 25.578125 -13.578125 L 26.90625 -13.578125 L 26.90625 -14.296875 L 26 -14.296875 Z M 13.90625 -12.140625 L 15.109375 -12.140625 L 15.109375 -11.90625 L 13.53125 -11.90625 L 13.53125 -11.65625 L 16.78125 -11.65625 L 16.640625 -11.90625 L 15.875 -11.90625 L 15.671875 -12.140625 L 15.25 -12.140625 L 14.671875 -13.09375 L 14.765625 -13.09375 L 14.484375 -13.578125 L 13.953125 -13.578125 L 13.953125 -13.09375 L 13.90625 -13.09375 Z M 35.28125 -11.421875 L 35.28125 -11.65625 L 29.53125 -11.65625 L 29.53125 -11.90625 L 27.484375 -11.90625 L 27.484375 -12.140625 L 27.046875 -12.140625 L 27.046875 -13.09375 L 26.28125 -13.09375 L 25.671875 -12.140625 L 26.140625 -12.140625 L 26 -11.90625 L 26.765625 -11.90625 L 26.625 -11.65625 L 22.703125 -11.65625 L 22.703125 -11.421875 L 17.5 -11.421875 L 17.5 -10.953125 L 10.796875 -10.953125 L 10.796875 -9.984375 L 13.859375 -9.984375 L 13.859375 -9.75 L 12.46875 -9.75 L 12.46875 -9.03125 L 8.5625 -9.03125 L 8.5625 -8.3125 L 8.796875 -8.3125 L 8.796875 -7.59375 L 22.328125 -7.59375 L 22.328125 -8.3125 L 23.375 -8.3125 L 23.375 -9.03125 L 19.359375 -9.03125 C 19.265625 -8.90625 19.164062 -8.773438 19.0625 -8.640625 C 18.96875 -8.515625 18.84375 -8.40625 18.6875 -8.3125 L 18.546875 -8.3125 C 18.253906 -8.125 17.9375 -8.03125 17.59375 -8.03125 L 14.25 -8.03125 C 13.863281 -8.03125 13.523438 -8.125 13.234375 -8.3125 L 13.390625 -8.3125 C 13.253906 -8.40625 13.128906 -8.515625 13.015625 -8.640625 C 12.910156 -8.773438 12.8125 -8.90625 12.71875 -9.03125 L 17.640625 -9.03125 L 17.5 -9.21875 L 17.15625 -9.75 L 15.4375 -9.75 L 15.296875 -9.984375 L 18.640625 -9.984375 L 18.015625 -10.953125 L 23.609375 -10.953125 L 23.328125 -11.421875 Z M 33.265625 -9.984375 L 33.265625 -10.953125 L 27 -10.953125 L 26.4375 -9.984375 L 23.140625 -9.984375 L 22.984375 -9.75 L 24.71875 -9.75 L 24.375 -9.21875 L 24.234375 -9.03125 L 25.8125 -9.03125 L 25.8125 -9.75 L 29.53125 -9.75 L 29.53125 -9.984375 Z M 33.265625 -9.984375 "/></g></g></g><g fill="#222222" fill-opacity="1"><g transform="translate(107.873031, 46.125892)"><g><path d="M 36.65625 -2.578125 L 37 -1.625 L 36.1875 -1.625 L 36.28125 -1.390625 C 36.28125 -1.359375 36.285156 -1.316406 36.296875 -1.265625 C 36.316406 -1.210938 36.328125 -1.171875 36.328125 -1.140625 L 36.03125 -1.140625 L 36.03125 -1.046875 C 36.03125 -0.671875 35.890625 -0.382812 35.609375 -0.1875 L 35.65625 -0.1875 C 35.5 -0.0625 35.289062 0 35.03125 0 L 26.1875 0 C 25.96875 0 25.785156 -0.0195312 25.640625 -0.0625 C 25.492188 -0.113281 25.34375 -0.15625 25.1875 -0.1875 C 24.9375 -0.3125 24.742188 -0.460938 24.609375 -0.640625 C 24.484375 -0.816406 24.390625 -0.984375 24.328125 -1.140625 L 24.5625 -1.140625 L 24.5625 -1.1875 L 24.46875 -1.390625 L 24.375 -1.625 L 25.1875 -1.625 L 24.859375 -2.578125 L 23.953125 -2.578125 L 23.796875 -3.0625 L 25.765625 -3.0625 L 25.421875 -4.015625 L 24.859375 -4.015625 L 24.71875 -4.34375 L 14.4375 -4.34375 L 14.34375 -4.015625 L 13.765625 -4.015625 L 13.4375 -3.0625 L 12.90625 -3.0625 L 12.71875 -2.578125 L 12.421875 -2.578125 L 12.09375 -1.625 L 12.140625 -1.625 L 12.046875 -1.390625 L 12 -1.1875 L 11.953125 -1.140625 L 11.703125 -1.140625 C 11.640625 -0.984375 11.546875 -0.816406 11.421875 -0.640625 C 11.296875 -0.460938 11.101562 -0.3125 10.84375 -0.1875 L 12.28125 -0.1875 C 12.15625 -0.15625 12.007812 -0.113281 11.84375 -0.0625 C 11.6875 -0.0195312 11.5 0 11.28125 0 L 2.4375 0 C 2.1875 0 1.992188 -0.0625 1.859375 -0.1875 L 0.4375 -0.1875 C 0.113281 -0.414062 -0.046875 -0.703125 -0.046875 -1.046875 L -0.046875 -1.140625 L 0.234375 -1.140625 C 0.234375 -1.242188 0.25 -1.328125 0.28125 -1.390625 L 0.328125 -1.625 L 0.28125 -1.625 L 0.625 -2.578125 L 0.90625 -2.578125 L 1.09375 -3.0625 L 1.625 -3.0625 L 1.953125 -4.015625 L 2.484375 -4.015625 L 2.8125 -4.96875 L 0.953125 -4.96875 L 1.140625 -5.453125 L 1 -5.453125 L 1.25 -6.171875 L 1.71875 -6.171875 L 1.8125 -6.40625 L 0.765625 -6.40625 L 1.09375 -7.359375 L 2.71875 -7.359375 L 2.875 -7.84375 L 1.390625 -7.84375 L 1.484375 -8.078125 L 1.71875 -8.078125 L 2.0625 -9.03125 L 1.90625 -9.03125 L 2.15625 -9.75 L 2.34375 -9.75 L 2.671875 -10.703125 L 3.296875 -10.703125 L 3.53125 -11.421875 L 3.625 -11.65625 L 6.015625 -11.65625 L 6.125 -11.90625 L 5.96875 -11.90625 L 6.21875 -12.625 L 3.53125 -12.625 L 3.875 -13.578125 L 4.734375 -13.578125 L 4.828125 -13.8125 L 4.296875 -13.8125 L 4.390625 -14.046875 L 5.921875 -14.046875 L 6.265625 -15.015625 L 4.390625 -15.015625 L 4.59375 -15.484375 L 5.3125 -15.484375 L 5.640625 -16.4375 L 5.203125 -16.4375 L 5.453125 -17.15625 L 5.96875 -17.15625 L 6.3125 -18.109375 L 6.171875 -18.109375 L 6.265625 -18.359375 L 5.15625 -18.359375 L 5.359375 -18.828125 L 6.40625 -18.828125 L 6.640625 -19.546875 L 6.171875 -19.546875 L 6.21875 -19.78125 L 7.078125 -19.78125 L 7.40625 -20.75 L 6.359375 -20.75 L 6.59375 -21.453125 L 6.0625 -21.453125 L 6.21875 -21.9375 L 2.921875 -21.9375 L 3.0625 -22.421875 L 2.4375 -22.421875 L 2.765625 -23.375 L 2.15625 -23.375 L 2.4375 -24.09375 L 4.296875 -24.09375 L 4.640625 -25.046875 L 9.421875 -25.046875 L 9.65625 -25.765625 L 7.359375 -25.765625 L 7.546875 -26.234375 L 9.328125 -26.234375 L 9.65625 -27.203125 L 8.078125 -27.203125 L 8.3125 -27.90625 L 9.328125 -27.90625 L 9.65625 -28.875 L 9.515625 -28.875 L 9.84375 -29.828125 L 8.515625 -29.828125 L 8.5625 -30.0625 L 13.140625 -30.0625 L 13.484375 -31.015625 L 13.328125 -31.015625 L 13.4375 -31.265625 L 11.765625 -31.265625 L 11.953125 -31.875 L 12.09375 -32.21875 L 12.578125 -32.21875 L 12.859375 -32.6875 L 12.71875 -32.6875 C 12.875 -32.914062 13.09375 -33.097656 13.375 -33.234375 C 13.664062 -33.378906 14.019531 -33.453125 14.4375 -33.453125 L 24.8125 -33.453125 C 25.21875 -33.453125 25.5625 -33.378906 25.84375 -33.234375 C 26.132812 -33.097656 26.363281 -32.914062 26.53125 -32.6875 L 26.71875 -32.6875 L 27 -32.21875 L 26.53125 -32.21875 C 26.59375 -32.09375 26.625 -31.976562 26.625 -31.875 L 26.859375 -31.265625 L 28.53125 -31.265625 L 28.578125 -31.015625 L 28.71875 -31.015625 L 29.0625 -30.0625 L 24.515625 -30.0625 L 24.609375 -29.828125 L 25.953125 -29.828125 L 26.28125 -28.875 L 26.4375 -28.875 L 26.765625 -27.90625 L 25.765625 -27.90625 L 26 -27.203125 L 27.578125 -27.203125 L 27.90625 -26.234375 L 26.140625 -26.234375 L 26.34375 -25.765625 L 28.625 -25.765625 L 28.875 -25.046875 L 24.09375 -25.046875 L 24.421875 -24.09375 L 22.5625 -24.09375 L 22.796875 -23.375 L 23.375 -23.375 L 23.703125 -22.421875 L 21.84375 -22.421875 L 22.03125 -21.9375 L 29.640625 -21.9375 L 29.78125 -21.453125 L 29.390625 -21.453125 L 29.640625 -20.75 L 28.671875 -20.75 L 29.015625 -19.78125 L 27.859375 -19.78125 L 27.90625 -19.546875 L 29.640625 -19.546875 L 29.875 -18.828125 L 29.921875 -18.828125 L 30.109375 -18.359375 L 28.53125 -18.359375 L 28.625 -18.109375 L 30.15625 -18.109375 L 30.5 -17.15625 L 31.015625 -17.15625 L 31.265625 -16.4375 L 31.109375 -16.4375 L 31.453125 -15.484375 L 32.21875 -15.484375 L 32.40625 -15.015625 L 31.015625 -15.015625 L 31.359375 -14.046875 L 32.3125 -14.046875 L 32.359375 -13.8125 L 32.125 -13.8125 L 32.21875 -13.578125 L 31.359375 -13.578125 L 31.640625 -12.625 L 34.359375 -12.625 L 34.609375 -11.90625 L 34.75 -11.90625 L 34.84375 -11.65625 L 32.40625 -11.65625 L 32.5 -11.421875 L 32.546875 -11.421875 L 32.78125 -10.703125 L 32.171875 -10.703125 L 32.5 -9.75 L 32.265625 -9.75 L 32.546875 -9.03125 L 32.6875 -9.03125 L 33.03125 -8.078125 L 32.78125 -8.078125 L 32.890625 -7.84375 L 34.359375 -7.84375 L 34.5625 -7.359375 L 32.890625 -7.359375 L 33.21875 -6.40625 L 34.265625 -6.40625 L 34.359375 -6.171875 L 33.890625 -6.171875 L 34.171875 -5.453125 L 34.265625 -5.453125 L 34.46875 -4.96875 L 36.328125 -4.96875 L 36.65625 -4.015625 L 37.234375 -4.015625 L 37.5625 -3.0625 L 35.609375 -3.0625 L 35.75 -2.578125 Z M 16.6875 -21.453125 L 17.25 -21.453125 L 17.015625 -20.75 L 18.96875 -20.75 L 18.734375 -21.453125 L 19.125 -21.453125 L 18.96875 -21.9375 L 16.828125 -21.9375 Z M 18.265625 -19.78125 L 18.015625 -20.59375 L 17.78125 -19.78125 Z M 15.390625 -14.046875 L 15.296875 -13.8125 L 15.828125 -13.8125 L 15.765625 -13.671875 L 21.171875 -13.671875 L 21.125 -13.8125 L 21.359375 -13.8125 L 21.3125 -14.046875 L 20.359375 -14.046875 L 20.078125 -15.015625 L 21.453125 -15.015625 L 21.3125 -15.484375 L 20.5 -15.484375 L 20.21875 -16.4375 L 20.359375 -16.4375 L 20.171875 -17.15625 L 19.640625 -17.15625 L 19.359375 -18.109375 L 17.828125 -18.109375 L 17.734375 -18.359375 L 19.3125 -18.359375 L 19.171875 -18.828125 L 19.125 -18.828125 L 18.875 -19.546875 L 17.34375 -19.546875 L 17.15625 -18.828125 L 16.109375 -18.828125 L 15.96875 -18.359375 L 17.015625 -18.359375 L 16.96875 -18.109375 L 17.109375 -18.109375 L 16.828125 -17.15625 L 16.296875 -17.15625 L 16.0625 -16.4375 L 16.484375 -16.4375 L 16.203125 -15.484375 L 15.484375 -15.484375 L 15.34375 -15.015625 L 17.203125 -15.015625 L 16.921875 -14.046875 Z M 15.390625 -14.046875 "/></g></g></g><g fill="#222222" fill-opacity="1"><g transform="translate(143.955799, 46.125892)"><g/></g></g><g fill="#222222" fill-opacity="1"><g transform="translate(152.845065, 46.125892)"><g><path d="M 46.5 -11.421875 L 36.03125 -11.421875 L 36.03125 -10.953125 L 44.5 -10.953125 L 44.5 -9.984375 L 40.765625 -9.984375 L 40.765625 -9.75 L 37.046875 -9.75 L 37.046875 -9.03125 L 34.609375 -9.03125 L 34.609375 -8.3125 L 33.546875 -8.3125 L 33.546875 -7.59375 L 28.53125 -7.59375 L 28.53125 -6.640625 L 36.03125 -6.640625 L 36.03125 -5.6875 L 32.21875 -5.6875 L 32.21875 -5.203125 L 35.5625 -5.203125 L 35.5625 -4.734375 L 37.5625 -4.734375 L 37.5625 -4.015625 L 38.28125 -4.015625 L 38.28125 -3.296875 L 38.953125 -3.296875 L 38.953125 -2.8125 L 39 -2.8125 L 39 -1.859375 L 40 -1.859375 L 40 -1.625 L 39.484375 -1.625 L 39.484375 -1.390625 L 38.28125 -1.390625 L 38.28125 -1.140625 L 35.515625 -1.140625 L 35.375 -0.671875 L 33.890625 -0.671875 C 33.765625 -0.441406 33.617188 -0.28125 33.453125 -0.1875 L 35.21875 -0.1875 C 35.0625 -0.0625 34.84375 0 34.5625 0 L 25.90625 0 C 25.613281 0 25.390625 -0.0625 25.234375 -0.1875 L 23.421875 -0.1875 C 23.265625 -0.28125 23.117188 -0.441406 22.984375 -0.671875 L 24.421875 -0.671875 C 24.328125 -0.828125 24.28125 -0.984375 24.28125 -1.140625 L 27.046875 -1.140625 L 27.046875 -1.390625 L 28.25 -1.390625 L 28.25 -1.625 L 28.78125 -1.625 L 28.78125 -1.859375 L 27.765625 -1.859375 L 27.765625 -2.8125 L 27.71875 -2.8125 L 27.71875 -3.296875 L 27.046875 -3.296875 L 27.046875 -4.015625 L 26.34375 -4.015625 L 26.34375 -4.734375 L 24.328125 -4.734375 L 24.328125 -5.203125 L 20.984375 -5.203125 L 20.984375 -5.6875 L 24.8125 -5.6875 L 24.8125 -6.640625 L 7.890625 -6.640625 L 7.890625 -5.6875 L 14.71875 -5.6875 L 14.71875 -5.203125 L 13.71875 -5.203125 L 13.71875 -4.015625 L 13.90625 -4.015625 L 13.90625 -3.296875 L 13 -3.296875 L 13 -2.8125 L 12.671875 -2.8125 L 12.671875 -1.859375 L 12.8125 -1.859375 L 12.8125 -1.625 L 16.34375 -1.625 L 16.34375 -1.390625 L 13.390625 -1.390625 L 13.390625 -1.140625 L 15.109375 -1.140625 C 15.109375 -0.984375 15.054688 -0.828125 14.953125 -0.671875 L 12.328125 -0.671875 C 12.234375 -0.441406 12.078125 -0.28125 11.859375 -0.1875 L 11.5625 -0.1875 C 11.40625 -0.0625 11.164062 0 10.84375 0 L 2.203125 0 C 1.910156 0 1.6875 -0.0625 1.53125 -0.1875 L 1.859375 -0.1875 C 1.765625 -0.25 1.675781 -0.320312 1.59375 -0.40625 C 1.519531 -0.488281 1.453125 -0.578125 1.390625 -0.671875 L 4.0625 -0.671875 C 3.96875 -0.828125 3.921875 -0.984375 3.921875 -1.140625 L 2.15625 -1.140625 L 2.15625 -1.390625 L 5.109375 -1.390625 L 5.109375 -1.625 L 1.578125 -1.625 L 1.578125 -1.859375 L 1.4375 -1.859375 L 1.4375 -2.8125 L 1.765625 -2.8125 L 1.765625 -3.296875 L 2.671875 -3.296875 L 2.671875 -4.015625 L 2.484375 -4.015625 L 2.484375 -5.203125 L 3.484375 -5.203125 L 3.484375 -5.6875 L -3.34375 -5.6875 L -3.34375 -6.640625 L 6.984375 -6.640625 L 6.984375 -7.59375 L -2.4375 -7.59375 L -2.4375 -8.3125 L -2.671875 -8.3125 L -2.671875 -9.03125 L 1.25 -9.03125 L 1.25 -9.75 L 2.625 -9.75 L 2.625 -9.984375 L -0.4375 -9.984375 L -0.4375 -10.953125 L 6.265625 -10.953125 L 6.265625 -11.421875 L 10.953125 -11.421875 L 10.796875 -11.65625 L 2.296875 -11.65625 L 2.296875 -11.90625 L 3.875 -11.90625 L 3.875 -12.140625 L 2.671875 -12.140625 L 2.671875 -13.09375 L 2.71875 -13.09375 L 2.71875 -13.578125 L 3.828125 -13.578125 L 3.828125 -14.296875 L 3.578125 -14.296875 L 3.578125 -15.25 L 2.296875 -15.25 L 2.296875 -15.484375 L -2 -15.484375 L -2 -15.96875 L 1.71875 -15.96875 L 1.71875 -16.203125 L 1.578125 -16.203125 L 1.578125 -16.6875 L 3.6875 -16.6875 L 3.6875 -17.15625 L 4.828125 -17.15625 L 4.828125 -17.875 L -2.71875 -17.875 L -2.71875 -18.828125 L 3.296875 -18.828125 L 3.296875 -19.3125 L -2.0625 -19.3125 L -2.0625 -20.03125 L 3.484375 -20.03125 L 3.484375 -20.5 L 2.8125 -20.5 L 2.8125 -20.984375 L 1 -20.984375 L 1 -21.21875 L 1.90625 -21.21875 L 1.90625 -21.9375 L 7.40625 -21.9375 L 7.40625 -22.65625 L 6.59375 -22.65625 L 6.59375 -23.140625 L 2.0625 -23.140625 L 2.0625 -23.375 L 1.8125 -23.375 L 1.8125 -24.09375 L 4.0625 -24.09375 L 4.0625 -25.046875 L -0.90625 -25.046875 L -0.90625 -25.53125 L 0.8125 -25.53125 L 0.8125 -25.765625 L 1.296875 -25.765625 L 1.296875 -26.234375 L 0.1875 -26.234375 L 0.1875 -26.953125 L 4.5 -26.953125 L 4.5 -27.671875 L 2.296875 -27.671875 L 2.296875 -28.625 L 5.921875 -28.625 L 5.921875 -28.875 L 4.78125 -28.875 L 4.78125 -29.828125 L 9.03125 -29.828125 L 9.03125 -30.546875 L -0.953125 -30.546875 L -0.953125 -31.265625 L 9.65625 -31.265625 L 9.65625 -31.96875 L 4.96875 -31.96875 L 4.96875 -32.453125 L 1.390625 -32.453125 C 1.421875 -32.609375 1.472656 -32.742188 1.546875 -32.859375 C 1.628906 -32.972656 1.71875 -33.078125 1.8125 -33.171875 L 2.0625 -33.171875 C 2.25 -33.359375 2.519531 -33.453125 2.875 -33.453125 L 10.421875 -33.453125 C 10.867188 -33.453125 11.234375 -33.359375 11.515625 -33.171875 L 11.28125 -33.171875 C 11.46875 -33.078125 11.625 -32.960938 11.75 -32.828125 C 11.882812 -32.703125 11.984375 -32.578125 12.046875 -32.453125 L 15.671875 -32.453125 L 15.875 -32.171875 L 15.96875 -31.96875 L 20.703125 -31.96875 L 21.125 -31.265625 L 10.515625 -31.265625 L 10.953125 -30.546875 L 20.890625 -30.546875 L 21.3125 -29.828125 L 17.109375 -29.828125 L 17.6875 -28.875 L 18.828125 -28.875 L 18.96875 -28.625 L 15.34375 -28.625 L 15.921875 -27.671875 L 18.0625 -27.671875 L 18.5 -26.953125 L 14.25 -26.953125 L 14.671875 -26.234375 L 15.765625 -26.234375 L 16.0625 -25.765625 L 15.578125 -25.765625 L 15.71875 -25.53125 L 14 -25.53125 L 14.296875 -25.046875 L 19.265625 -25.046875 L 19.828125 -24.09375 L 17.59375 -24.09375 L 18.015625 -23.375 L 18.265625 -23.375 L 18.40625 -23.140625 L 21.9375 -23.140625 L 22.078125 -23.375 L 20.796875 -23.375 L 21.21875 -24.09375 L 22.796875 -24.09375 L 23.375 -25.046875 L 22.515625 -25.046875 L 22.796875 -25.53125 L 18.921875 -25.53125 L 19.078125 -25.765625 L 23.90625 -25.765625 L 24.1875 -26.234375 L 23.796875 -26.234375 L 24.234375 -26.953125 L 27.09375 -26.953125 L 27.53125 -27.671875 L 27.671875 -27.671875 L 28.25 -28.625 L 26.046875 -28.625 L 26.1875 -28.875 L 31.21875 -28.875 L 31.78125 -29.828125 L 31.5 -29.828125 L 31.921875 -30.546875 L 24.5625 -30.546875 L 25 -31.265625 L 32.078125 -31.265625 L 32.5 -31.96875 L 27.296875 -31.96875 L 27.390625 -32.171875 C 27.453125 -32.296875 27.515625 -32.390625 27.578125 -32.453125 L 27.671875 -32.453125 C 27.765625 -32.578125 27.875 -32.703125 28 -32.828125 C 28.132812 -32.960938 28.28125 -33.078125 28.4375 -33.171875 L 28.34375 -33.171875 C 28.632812 -33.359375 29 -33.453125 29.4375 -33.453125 L 37 -33.453125 C 37.3125 -33.453125 37.582031 -33.359375 37.8125 -33.171875 L 37.953125 -33.171875 C 38.046875 -33.078125 38.128906 -32.972656 38.203125 -32.859375 C 38.285156 -32.742188 38.34375 -32.609375 38.375 -32.453125 L 38.28125 -32.453125 L 38.28125 -31.96875 L 43.546875 -31.96875 L 43.546875 -31.265625 L 36.46875 -31.265625 L 36.46875 -30.546875 L 43.828125 -30.546875 L 43.828125 -29.828125 L 44.109375 -29.828125 L 44.109375 -28.875 L 39.09375 -28.875 L 39.09375 -28.625 L 41.296875 -28.625 L 41.296875 -27.671875 L 41.15625 -27.671875 L 41.15625 -26.953125 L 38.28125 -26.953125 L 38.28125 -26.234375 L 38.671875 -26.234375 L 38.671875 -25.765625 L 33.84375 -25.765625 L 33.84375 -25.53125 L 37.71875 -25.53125 L 37.71875 -25.046875 L 38.578125 -25.046875 L 38.578125 -24.09375 L 37.046875 -24.09375 L 37.046875 -23.375 L 38.28125 -23.375 L 38.28125 -23.140625 L 40.53125 -23.140625 L 40.53125 -22.65625 L 35.609375 -22.65625 L 35.609375 -21.9375 L 39.140625 -21.9375 L 39.140625 -21.21875 L 38.28125 -21.21875 L 38.28125 -20.984375 L 38.46875 -20.984375 L 38.46875 -20.5 L 39.140625 -20.5 L 39.140625 -20.03125 L 33.59375 -20.03125 L 33.59375 -19.3125 L 38.953125 -19.3125 L 38.953125 -18.828125 L 32.9375 -18.828125 L 32.9375 -17.875 L 40.484375 -17.875 L 40.484375 -17.15625 L 39.34375 -17.15625 L 39.34375 -16.6875 L 37.234375 -16.6875 L 37.234375 -16.203125 L 37.375 -16.203125 L 37.375 -15.96875 L 33.65625 -15.96875 L 33.65625 -15.484375 L 37.953125 -15.484375 L 37.953125 -15.25 L 39.234375 -15.25 L 39.234375 -14.296875 L 38.140625 -14.296875 L 38.140625 -13.578125 L 37.328125 -13.578125 L 37.328125 -13.09375 L 38.28125 -13.09375 L 38.28125 -12.140625 L 38.71875 -12.140625 L 38.71875 -11.90625 L 40.765625 -11.90625 L 40.765625 -11.65625 L 46.5 -11.65625 Z M 24.140625 -23.140625 L 22.9375 -23.140625 L 23.234375 -22.65625 L 23.84375 -22.65625 Z M 18.5 -21.21875 L 18.640625 -20.984375 L 20.5 -20.984375 L 20.640625 -20.703125 L 20.84375 -20.984375 L 20.640625 -20.984375 L 20.796875 -21.21875 L 21.609375 -21.21875 L 22.03125 -21.9375 L 19.015625 -21.9375 L 19.453125 -21.21875 Z M 25.578125 -13.578125 L 26.90625 -13.578125 L 26.90625 -14.296875 L 26 -14.296875 Z M 13.90625 -12.140625 L 15.109375 -12.140625 L 15.109375 -11.90625 L 13.53125 -11.90625 L 13.53125 -11.65625 L 16.78125 -11.65625 L 16.640625 -11.90625 L 15.875 -11.90625 L 15.671875 -12.140625 L 15.25 -12.140625 L 14.671875 -13.09375 L 14.765625 -13.09375 L 14.484375 -13.578125 L 13.953125 -13.578125 L 13.953125 -13.09375 L 13.90625 -13.09375 Z M 35.28125 -11.421875 L 35.28125 -11.65625 L 29.53125 -11.65625 L 29.53125 -11.90625 L 27.484375 -11.90625 L 27.484375 -12.140625 L 27.046875 -12.140625 L 27.046875 -13.09375 L 26.28125 -13.09375 L 25.671875 -12.140625 L 26.140625 -12.140625 L 26 -11.90625 L 26.765625 -11.90625 L 26.625 -11.65625 L 22.703125 -11.65625 L 22.703125 -11.421875 L 17.5 -11.421875 L 17.5 -10.953125 L 10.796875 -10.953125 L 10.796875 -9.984375 L 13.859375 -9.984375 L 13.859375 -9.75 L 12.46875 -9.75 L 12.46875 -9.03125 L 8.5625 -9.03125 L 8.5625 -8.3125 L 8.796875 -8.3125 L 8.796875 -7.59375 L 22.328125 -7.59375 L 22.328125 -8.3125 L 23.375 -8.3125 L 23.375 -9.03125 L 19.359375 -9.03125 C 19.265625 -8.90625 19.164062 -8.773438 19.0625 -8.640625 C 18.96875 -8.515625 18.84375 -8.40625 18.6875 -8.3125 L 18.546875 -8.3125 C 18.253906 -8.125 17.9375 -8.03125 17.59375 -8.03125 L 14.25 -8.03125 C 13.863281 -8.03125 13.523438 -8.125 13.234375 -8.3125 L 13.390625 -8.3125 C 13.253906 -8.40625 13.128906 -8.515625 13.015625 -8.640625 C 12.910156 -8.773438 12.8125 -8.90625 12.71875 -9.03125 L 17.640625 -9.03125 L 17.5 -9.21875 L 17.15625 -9.75 L 15.4375 -9.75 L 15.296875 -9.984375 L 18.640625 -9.984375 L 18.015625 -10.953125 L 23.609375 -10.953125 L 23.328125 -11.421875 Z M 33.265625 -9.984375 L 33.265625 -10.953125 L 27 -10.953125 L 26.4375 -9.984375 L 23.140625 -9.984375 L 22.984375 -9.75 L 24.71875 -9.75 L 24.375 -9.21875 L 24.234375 -9.03125 L 25.8125 -9.03125 L 25.8125 -9.75 L 29.53125 -9.75 L 29.53125 -9.984375 Z M 33.265625 -9.984375 "/></g></g></g><g fill="#222222" fill-opacity="1"><g transform="translate(193.754802, 46.125892)"><g><path d="M 33.078125 -18.359375 L 35.46875 -18.359375 L 35.46875 -17.390625 L 35.03125 -17.390625 L 35.03125 -16.4375 L 34.609375 -16.4375 L 34.609375 -15.71875 L 33.59375 -15.71875 L 33.59375 -15.484375 L 33.984375 -15.484375 L 33.984375 -15.25 L 32.640625 -15.25 L 32.640625 -14.765625 L 34.9375 -14.765625 L 34.9375 -14.046875 L 33.546875 -14.046875 L 33.546875 -13.8125 L 33.59375 -13.8125 C 33.59375 -13.65625 33.582031 -13.492188 33.5625 -13.328125 C 33.550781 -13.171875 33.546875 -13.015625 33.546875 -12.859375 L 33.5 -12.859375 C 33.46875 -12.765625 33.453125 -12.617188 33.453125 -12.421875 L 33.453125 -11.90625 L 33.21875 -11.90625 C 33.1875 -11.84375 33.171875 -11.757812 33.171875 -11.65625 C 33.171875 -11.5625 33.171875 -11.484375 33.171875 -11.421875 L 33.65625 -11.421875 L 33.5 -10.46875 L 33.078125 -10.46875 C 33.046875 -10.3125 33.019531 -10.148438 33 -9.984375 C 32.988281 -9.828125 32.953125 -9.671875 32.890625 -9.515625 L 33.40625 -9.515625 C 33.40625 -9.484375 33.394531 -9.453125 33.375 -9.421875 C 33.363281 -9.390625 33.359375 -9.335938 33.359375 -9.265625 L 34.078125 -9.265625 C 34.078125 -9.234375 34.066406 -9.203125 34.046875 -9.171875 C 34.035156 -9.140625 34.03125 -9.09375 34.03125 -9.03125 L 33.171875 -9.03125 C 33.140625 -8.90625 33.109375 -8.785156 33.078125 -8.671875 C 33.046875 -8.566406 33.015625 -8.445312 32.984375 -8.3125 L 32.84375 -8.3125 L 32.546875 -7.59375 L 32.03125 -7.59375 C 31.988281 -7.46875 31.9375 -7.347656 31.875 -7.234375 C 31.8125 -7.128906 31.75 -7.007812 31.6875 -6.875 L 32.125 -6.875 C 32.0625 -6.71875 31.976562 -6.5625 31.875 -6.40625 L 31.59375 -6.40625 C 31.5625 -6.28125 31.503906 -6.160156 31.421875 -6.046875 C 31.347656 -5.929688 31.28125 -5.8125 31.21875 -5.6875 L 32.6875 -5.6875 L 32.359375 -5.203125 L 30.59375 -5.203125 L 30.0625 -4.5 L 30.59375 -4.5 L 29.921875 -3.78125 L 30.453125 -3.78125 C 30.421875 -3.75 30.378906 -3.710938 30.328125 -3.671875 C 30.273438 -3.640625 30.234375 -3.59375 30.203125 -3.53125 L 30.78125 -3.53125 C 30.6875 -3.46875 30.597656 -3.390625 30.515625 -3.296875 C 30.441406 -3.203125 30.351562 -3.125 30.25 -3.0625 L 29.34375 -3.0625 C 29.25 -3 29.15625 -2.914062 29.0625 -2.8125 C 28.96875 -2.71875 28.851562 -2.640625 28.71875 -2.578125 L 29.0625 -2.578125 C 28.96875 -2.515625 28.863281 -2.4375 28.75 -2.34375 C 28.632812 -2.25 28.515625 -2.171875 28.390625 -2.109375 L 28.296875 -2.109375 C 28.003906 -1.941406 27.710938 -1.78125 27.421875 -1.625 C 27.140625 -1.46875 26.84375 -1.304688 26.53125 -1.140625 L 26.390625 -1.140625 C 26.285156 -1.109375 26.1875 -1.078125 26.09375 -1.046875 C 26 -1.015625 25.90625 -0.96875 25.8125 -0.90625 C 25.582031 -0.8125 25.363281 -0.722656 25.15625 -0.640625 C 24.957031 -0.566406 24.726562 -0.5 24.46875 -0.4375 L 24.421875 -0.4375 C 23.367188 -0.113281 22.222656 0.125 20.984375 0.28125 L 21.03125 0.28125 C 20.519531 0.34375 19.984375 0.390625 19.421875 0.421875 C 18.867188 0.460938 18.320312 0.484375 17.78125 0.484375 C 17.207031 0.484375 16.648438 0.460938 16.109375 0.421875 C 15.566406 0.390625 15.023438 0.34375 14.484375 0.28125 C 13.273438 0.15625 12.113281 -0.0820312 11 -0.4375 L 11.046875 -0.4375 C 10.816406 -0.5 10.585938 -0.566406 10.359375 -0.640625 C 10.140625 -0.722656 9.921875 -0.8125 9.703125 -0.90625 L 9.65625 -0.90625 C 9.5625 -0.96875 9.460938 -1.015625 9.359375 -1.046875 C 9.265625 -1.078125 9.171875 -1.109375 9.078125 -1.140625 L 9.21875 -1.140625 C 8.90625 -1.304688 8.601562 -1.46875 8.3125 -1.625 C 8.03125 -1.78125 7.742188 -1.941406 7.453125 -2.109375 L 7.546875 -2.109375 L 6.828125 -2.578125 L 6.546875 -2.578125 C 6.421875 -2.640625 6.304688 -2.71875 6.203125 -2.8125 C 6.109375 -2.914062 6.015625 -3 5.921875 -3.0625 L 6.828125 -3.0625 L 6.265625 -3.53125 L 5.6875 -3.53125 C 5.65625 -3.59375 5.625 -3.640625 5.59375 -3.671875 C 5.5625 -3.710938 5.515625 -3.75 5.453125 -3.78125 L 4.96875 -3.78125 C 4.84375 -3.90625 4.722656 -4.019531 4.609375 -4.125 C 4.492188 -4.238281 4.390625 -4.363281 4.296875 -4.5 L 3.78125 -4.5 L 3.203125 -5.203125 L 4.96875 -5.203125 L 4.6875 -5.6875 L 3.15625 -5.6875 C 3.09375 -5.8125 3.03125 -5.929688 2.96875 -6.046875 C 2.90625 -6.160156 2.835938 -6.28125 2.765625 -6.40625 L 3.0625 -6.40625 C 2.96875 -6.5625 2.882812 -6.71875 2.8125 -6.875 L 2.390625 -6.875 C 2.328125 -7.007812 2.269531 -7.128906 2.21875 -7.234375 C 2.175781 -7.347656 2.125 -7.46875 2.0625 -7.59375 L 2.625 -7.59375 L 2.34375 -8.3125 L 2.484375 -8.3125 C 2.453125 -8.445312 2.421875 -8.566406 2.390625 -8.671875 C 2.359375 -8.785156 2.328125 -8.90625 2.296875 -9.03125 L 2.8125 -9.03125 C 2.78125 -9.09375 2.765625 -9.171875 2.765625 -9.265625 L 2.296875 -9.265625 C 2.296875 -9.335938 2.285156 -9.390625 2.265625 -9.421875 C 2.253906 -9.453125 2.25 -9.484375 2.25 -9.515625 L 2.15625 -9.515625 C 2.125 -9.671875 2.085938 -9.828125 2.046875 -9.984375 C 2.015625 -10.148438 1.984375 -10.3125 1.953125 -10.46875 L 2.203125 -10.46875 C 2.171875 -10.625 2.144531 -10.78125 2.125 -10.9375 C 2.113281 -11.101562 2.109375 -11.265625 2.109375 -11.421875 L 1.8125 -11.421875 L 1.765625 -11.90625 L 2.109375 -11.90625 L 2.109375 -12.421875 C 2.109375 -12.484375 2.097656 -12.554688 2.078125 -12.640625 C 2.066406 -12.722656 2.0625 -12.796875 2.0625 -12.859375 L 1.4375 -12.859375 C 1.40625 -13.015625 1.390625 -13.171875 1.390625 -13.328125 C 1.390625 -13.492188 1.390625 -13.65625 1.390625 -13.8125 L 1.71875 -13.8125 L 1.71875 -14.046875 L 1.578125 -14.046875 L 1.578125 -14.765625 L 2.53125 -14.765625 L 2.53125 -15.25 L 0.859375 -15.25 L 0.859375 -15.484375 L 1.765625 -15.484375 L 1.765625 -15.71875 L 1.71875 -15.71875 L 1.71875 -16.4375 L 1.484375 -16.4375 L 1.484375 -17.390625 L 1.765625 -17.390625 L 1.765625 -18.359375 L 1.4375 -18.359375 L 1.4375 -19.078125 L -0.328125 -19.078125 L -0.328125 -20.03125 L 1.71875 -20.03125 C 1.75 -20.09375 1.765625 -20.171875 1.765625 -20.265625 L 2.53125 -20.265625 L 2.53125 -20.5 L 1.953125 -20.5 L 1.953125 -20.984375 L 2 -20.984375 L 2.109375 -21.9375 L 2 -21.9375 C 2 -22.0625 2.007812 -22.179688 2.03125 -22.296875 C 2.050781 -22.410156 2.078125 -22.53125 2.109375 -22.65625 L 1.953125 -22.65625 C 1.953125 -22.78125 1.957031 -22.898438 1.96875 -23.015625 C 1.988281 -23.128906 2.019531 -23.25 2.0625 -23.375 L 1.953125 -23.375 C 1.984375 -23.5 2.015625 -23.617188 2.046875 -23.734375 C 2.085938 -23.847656 2.125 -23.96875 2.15625 -24.09375 L 0.8125 -24.09375 C 0.8125 -24.15625 0.816406 -24.203125 0.828125 -24.234375 C 0.847656 -24.265625 0.859375 -24.296875 0.859375 -24.328125 L 2.296875 -24.328125 L 2.4375 -24.8125 L 2.34375 -24.8125 L 2.4375 -25.046875 L 3.15625 -25.046875 C 3.1875 -25.109375 3.21875 -25.1875 3.25 -25.28125 C 3.28125 -25.375 3.3125 -25.457031 3.34375 -25.53125 L 2.875 -25.53125 C 2.96875 -25.8125 3.09375 -26.128906 3.25 -26.484375 L 3.109375 -26.484375 C 3.203125 -26.640625 3.285156 -26.804688 3.359375 -26.984375 C 3.441406 -27.160156 3.53125 -27.3125 3.625 -27.4375 L 3.78125 -27.4375 L 3.921875 -27.671875 L 3.15625 -27.671875 L 3.296875 -27.90625 L 4.0625 -27.90625 L 4.203125 -28.15625 L 4.109375 -28.15625 L 4.6875 -28.875 L 4.34375 -28.875 L 4.96875 -29.59375 C 5.125 -29.75 5.289062 -29.910156 5.46875 -30.078125 C 5.644531 -30.253906 5.828125 -30.410156 6.015625 -30.546875 L 5.546875 -30.546875 L 5.828125 -30.78125 L 5.3125 -30.78125 C 5.375 -30.84375 5.425781 -30.890625 5.46875 -30.921875 C 5.519531 -30.953125 5.578125 -30.984375 5.640625 -31.015625 L 6.828125 -31.015625 C 6.960938 -31.078125 7.09375 -31.15625 7.21875 -31.25 C 7.34375 -31.351562 7.46875 -31.4375 7.59375 -31.5 L 7.75 -31.5 C 8.0625 -31.65625 8.375 -31.820312 8.6875 -32 C 9.007812 -32.175781 9.332031 -32.328125 9.65625 -32.453125 L 9.796875 -32.453125 C 10.429688 -32.742188 11.132812 -32.984375 11.90625 -33.171875 L 12.140625 -33.171875 C 13.066406 -33.421875 14.035156 -33.609375 15.046875 -33.734375 C 16.066406 -33.867188 17.117188 -33.9375 18.203125 -33.9375 C 20.472656 -33.9375 22.484375 -33.679688 24.234375 -33.171875 L 23.953125 -33.171875 C 24.296875 -33.078125 24.644531 -32.972656 25 -32.859375 C 25.351562 -32.742188 25.6875 -32.609375 26 -32.453125 L 25.8125 -32.453125 C 26.164062 -32.328125 26.492188 -32.175781 26.796875 -32 C 27.097656 -31.820312 27.40625 -31.65625 27.71875 -31.5 L 27.53125 -31.5 L 28.25 -31.015625 L 27.046875 -31.015625 C 27.117188 -30.984375 27.175781 -30.953125 27.21875 -30.921875 C 27.269531 -30.890625 27.328125 -30.84375 27.390625 -30.78125 L 27.90625 -30.78125 C 27.976562 -30.75 28.046875 -30.71875 28.109375 -30.6875 C 28.171875 -30.65625 28.21875 -30.609375 28.25 -30.546875 L 28.71875 -30.546875 C 28.914062 -30.410156 29.097656 -30.253906 29.265625 -30.078125 C 29.441406 -29.910156 29.613281 -29.75 29.78125 -29.59375 L 29.828125 -29.59375 C 29.953125 -29.457031 30.0625 -29.332031 30.15625 -29.21875 C 30.25 -29.113281 30.347656 -29 30.453125 -28.875 L 30.78125 -28.875 L 31.359375 -28.15625 L 31.453125 -28.15625 C 31.546875 -28.0625 31.609375 -27.976562 31.640625 -27.90625 L 30.875 -27.90625 L 31.015625 -27.671875 L 31.828125 -27.671875 L 31.96875 -27.4375 L 31.828125 -27.4375 C 31.921875 -27.3125 32.007812 -27.160156 32.09375 -26.984375 C 32.175781 -26.804688 32.265625 -26.640625 32.359375 -26.484375 L 32.5 -26.484375 L 32.9375 -25.53125 L 33.40625 -25.53125 L 33.546875 -25.046875 L 32.84375 -25.046875 L 32.9375 -24.8125 L 33.03125 -24.8125 L 33.171875 -24.328125 L 33.03125 -24.328125 C 33.03125 -24.296875 33.035156 -24.265625 33.046875 -24.234375 C 33.066406 -24.203125 33.078125 -24.15625 33.078125 -24.09375 L 31.0625 -24.09375 C 31.125 -23.96875 31.164062 -23.847656 31.1875 -23.734375 C 31.207031 -23.617188 31.234375 -23.5 31.265625 -23.375 L 33.75 -23.375 C 33.78125 -23.25 33.800781 -23.128906 33.8125 -23.015625 C 33.832031 -22.898438 33.84375 -22.78125 33.84375 -22.65625 L 33.171875 -22.65625 C 33.203125 -22.53125 33.222656 -22.410156 33.234375 -22.296875 C 33.253906 -22.179688 33.265625 -22.0625 33.265625 -21.9375 L 33.890625 -21.9375 L 33.984375 -20.984375 L 33.359375 -20.984375 L 33.359375 -20.84375 C 33.359375 -20.8125 33.363281 -20.757812 33.375 -20.6875 C 33.394531 -20.625 33.40625 -20.5625 33.40625 -20.5 L 34.703125 -20.5 L 34.703125 -20.265625 L 33.546875 -20.265625 C 33.578125 -20.203125 33.59375 -20.125 33.59375 -20.03125 L 34.46875 -20.03125 C 34.5 -19.863281 34.515625 -19.703125 34.515625 -19.546875 C 34.515625 -19.390625 34.515625 -19.234375 34.515625 -19.078125 L 33.078125 -19.078125 Z M 22.609375 -17.390625 L 23.03125 -17.390625 L 23.03125 -18.359375 L 20.640625 -18.359375 L 20.640625 -19.078125 L 22.078125 -19.078125 C 22.078125 -19.234375 22.078125 -19.390625 22.078125 -19.546875 C 22.078125 -19.703125 22.0625 -19.863281 22.03125 -20.03125 L 21.171875 -20.03125 C 21.171875 -20.09375 21.160156 -20.140625 21.140625 -20.171875 C 21.128906 -20.203125 21.125 -20.234375 21.125 -20.265625 L 22.265625 -20.265625 L 22.265625 -20.5 L 20.984375 -20.5 C 20.984375 -20.5625 20.972656 -20.609375 20.953125 -20.640625 C 20.941406 -20.679688 20.9375 -20.71875 20.9375 -20.75 L 20.9375 -20.984375 L 21.515625 -20.984375 C 21.515625 -21.140625 21.503906 -21.304688 21.484375 -21.484375 C 21.460938 -21.660156 21.4375 -21.8125 21.40625 -21.9375 L 20.796875 -21.9375 C 20.765625 -22.0625 20.726562 -22.179688 20.6875 -22.296875 C 20.65625 -22.410156 20.609375 -22.53125 20.546875 -22.65625 L 21.21875 -22.65625 C 21.125 -22.90625 21 -23.144531 20.84375 -23.375 L 18.359375 -23.375 C 18.191406 -23.625 17.9375 -23.863281 17.59375 -24.09375 L 19.59375 -24.09375 C 19.40625 -24.21875 19.265625 -24.296875 19.171875 -24.328125 L 19.3125 -24.328125 C 18.832031 -24.515625 18.304688 -24.609375 17.734375 -24.609375 C 17.160156 -24.609375 16.632812 -24.515625 16.15625 -24.328125 L 14.765625 -24.328125 C 14.640625 -24.296875 14.484375 -24.21875 14.296875 -24.09375 L 15.625 -24.09375 C 15.375 -23.925781 15.117188 -23.6875 14.859375 -23.375 L 14.953125 -23.375 C 14.796875 -23.144531 14.671875 -22.90625 14.578125 -22.65625 L 14.71875 -22.65625 C 14.6875 -22.53125 14.65625 -22.410156 14.625 -22.296875 C 14.59375 -22.179688 14.546875 -22.0625 14.484375 -21.9375 L 14.578125 -21.9375 C 14.546875 -21.8125 14.519531 -21.660156 14.5 -21.484375 C 14.488281 -21.304688 14.484375 -21.140625 14.484375 -20.984375 L 14.390625 -20.984375 L 14.390625 -20.5 L 14.953125 -20.5 L 14.953125 -20.265625 L 14.203125 -20.265625 L 14.203125 -20.03125 L 12.09375 -20.03125 L 12.09375 -19.078125 L 13.859375 -19.078125 L 13.859375 -18.359375 L 14.203125 -18.359375 L 14.203125 -17.390625 L 13.90625 -17.390625 L 13.90625 -16.4375 L 14.140625 -16.4375 L 14.140625 -15.71875 L 14.203125 -15.71875 C 14.203125 -15.625 14.21875 -15.546875 14.25 -15.484375 L 13.28125 -15.484375 L 13.28125 -15.25 L 14.953125 -15.25 L 14.953125 -14.765625 L 14 -14.765625 L 14 -14.046875 L 14.140625 -14.046875 L 14.140625 -13.8125 L 13.8125 -13.8125 C 13.8125 -13.65625 13.816406 -13.492188 13.828125 -13.328125 C 13.847656 -13.171875 13.859375 -13.015625 13.859375 -12.859375 L 14.53125 -12.859375 L 14.53125 -12.71875 C 14.53125 -12.582031 14.53125 -12.441406 14.53125 -12.296875 C 14.53125 -12.160156 14.546875 -12.03125 14.578125 -11.90625 L 14.25 -11.90625 C 14.28125 -11.84375 14.296875 -11.757812 14.296875 -11.65625 C 14.296875 -11.5625 14.3125 -11.484375 14.34375 -11.421875 L 14.625 -11.421875 C 14.65625 -11.265625 14.703125 -11.101562 14.765625 -10.9375 C 14.828125 -10.78125 14.890625 -10.625 14.953125 -10.46875 L 14.71875 -10.46875 C 14.914062 -10.113281 15.171875 -9.796875 15.484375 -9.515625 L 15.578125 -9.515625 C 15.640625 -9.484375 15.703125 -9.441406 15.765625 -9.390625 C 15.835938 -9.347656 15.90625 -9.304688 15.96875 -9.265625 L 16.390625 -9.265625 C 16.484375 -9.234375 16.578125 -9.191406 16.671875 -9.140625 C 16.773438 -9.097656 16.875 -9.0625 16.96875 -9.03125 L 16.390625 -9.03125 C 16.773438 -8.90625 17.222656 -8.84375 17.734375 -8.84375 C 18.242188 -8.84375 18.691406 -8.90625 19.078125 -9.03125 L 19.890625 -9.03125 C 19.984375 -9.0625 20.078125 -9.097656 20.171875 -9.140625 C 20.265625 -9.191406 20.359375 -9.234375 20.453125 -9.265625 L 19.6875 -9.265625 C 19.75 -9.304688 19.8125 -9.347656 19.875 -9.390625 C 19.945312 -9.441406 20.015625 -9.484375 20.078125 -9.515625 L 19.546875 -9.515625 C 19.835938 -9.734375 20.09375 -10.050781 20.3125 -10.46875 L 20.75 -10.46875 C 20.90625 -10.820312 21.03125 -11.140625 21.125 -11.421875 L 20.640625 -11.421875 C 20.679688 -11.484375 20.703125 -11.5625 20.703125 -11.65625 C 20.703125 -11.757812 20.71875 -11.84375 20.75 -11.90625 L 20.984375 -11.90625 C 21.015625 -12.03125 21.03125 -12.160156 21.03125 -12.296875 C 21.03125 -12.441406 21.03125 -12.582031 21.03125 -12.71875 L 21.03125 -12.859375 L 21.125 -12.859375 C 21.125 -13.015625 21.125 -13.171875 21.125 -13.328125 C 21.125 -13.492188 21.140625 -13.65625 21.171875 -13.8125 L 21.125 -13.8125 L 21.125 -14.046875 L 22.515625 -14.046875 L 22.515625 -14.765625 L 20.21875 -14.765625 L 20.21875 -15.25 L 21.5625 -15.25 L 21.5625 -15.484375 L 21.171875 -15.484375 L 21.171875 -15.71875 L 22.171875 -15.71875 L 22.171875 -16.4375 L 22.609375 -16.4375 Z M 22.609375 -17.390625 "/></g></g></g><g fill="#222222" fill-opacity="1"><g transform="translate(229.216275, 46.125892)"><g><path d="M 33.078125 -19.078125 L 30.734375 -19.078125 C 30.703125 -18.941406 30.671875 -18.816406 30.640625 -18.703125 C 30.609375 -18.597656 30.5625 -18.484375 30.5 -18.359375 L 31.828125 -18.359375 L 31.6875 -17.875 L 30.546875 -17.875 C 30.453125 -17.59375 30.320312 -17.273438 30.15625 -16.921875 L 29.4375 -16.921875 C 29.3125 -16.597656 29.140625 -16.28125 28.921875 -15.96875 L 29.015625 -15.96875 C 28.890625 -15.800781 28.773438 -15.640625 28.671875 -15.484375 C 28.578125 -15.328125 28.46875 -15.171875 28.34375 -15.015625 L 33.5 -15.015625 L 32.890625 -14.296875 L 28.625 -14.296875 C 28.5 -14.128906 28.335938 -13.96875 28.140625 -13.8125 C 27.953125 -13.65625 27.78125 -13.492188 27.625 -13.328125 L 28.25 -13.328125 C 28.125 -13.203125 27.972656 -13.082031 27.796875 -12.96875 C 27.617188 -12.863281 27.453125 -12.75 27.296875 -12.625 L 28.875 -12.625 L 28.671875 -12.46875 L 29.109375 -11.65625 L 27.96875 -11.65625 L 28.484375 -10.703125 L 28.625 -10.703125 L 28.78125 -10.46875 L 28.71875 -10.46875 L 29.203125 -9.515625 L 29.6875 -9.515625 L 29.96875 -9.03125 L 26.28125 -9.03125 L 26.671875 -8.3125 L 30.015625 -8.3125 L 30.296875 -7.84375 L 29.25 -7.84375 L 29.640625 -7.125 L 34.359375 -7.125 L 34.890625 -6.171875 L 31.734375 -6.171875 L 32.125 -5.453125 L 30.640625 -5.453125 L 31.40625 -4.015625 L 31.734375 -4.015625 L 32.03125 -3.53125 L 31.875 -3.53125 L 32.03125 -3.296875 L 29.78125 -3.296875 L 30.296875 -2.34375 L 30.40625 -2.109375 L 28.921875 -2.109375 L 29.15625 -1.578125 C 29.25 -1.453125 29.296875 -1.304688 29.296875 -1.140625 L 30.296875 -1.140625 L 30.296875 -1.046875 C 30.296875 -0.703125 30.15625 -0.414062 29.875 -0.1875 L 31.15625 -0.1875 C 31 -0.0625 30.796875 0 30.546875 0 L 20.75 0 C 20.550781 0 20.378906 -0.0195312 20.234375 -0.0625 C 20.097656 -0.113281 19.945312 -0.15625 19.78125 -0.1875 L 18.5 -0.1875 C 18.238281 -0.3125 18.019531 -0.46875 17.84375 -0.65625 C 17.675781 -0.851562 17.546875 -1.015625 17.453125 -1.140625 L 16.484375 -1.140625 L 16.390625 -1.296875 L 16.0625 -2.109375 L 17.59375 -2.109375 L 17.453125 -2.34375 L 12.90625 -2.34375 L 12.90625 -2.109375 L 10.46875 -2.109375 L 10.46875 -1.140625 L 14.34375 -1.140625 C 14.28125 -0.703125 14.070312 -0.382812 13.71875 -0.1875 L 13.390625 -0.1875 C 13.160156 -0.0625 12.921875 0 12.671875 0 L 3.296875 0 C 3.015625 0 2.789062 -0.0625 2.625 -0.1875 L 3.015625 -0.1875 C 2.660156 -0.382812 2.453125 -0.703125 2.390625 -1.140625 L -1.4375 -1.140625 C -1.4375 -1.171875 -1.441406 -1.195312 -1.453125 -1.21875 C -1.472656 -1.238281 -1.484375 -1.265625 -1.484375 -1.296875 L -1.484375 -2.109375 L 0.953125 -2.109375 L 0.953125 -2.34375 L 5.734375 -2.34375 L 5.734375 -3.296875 L 0.625 -3.296875 L 0.625 -3.53125 L 3.625 -3.53125 L 3.625 -4.015625 L 2.625 -4.015625 L 2.625 -4.734375 L 4.296875 -4.734375 L 4.296875 -5.453125 L 1.578125 -5.453125 L 1.578125 -6.171875 L 5.25 -6.171875 L 5.25 -7.125 L 3.15625 -7.125 L 3.15625 -7.84375 L 3.109375 -7.84375 L 3.109375 -8.078125 L 2.8125 -8.078125 L 2.8125 -8.3125 L 1.53125 -8.3125 L 1.53125 -9.03125 L 3.15625 -9.03125 L 3.15625 -9.515625 L 2.71875 -9.515625 L 2.71875 -10.46875 L 2.765625 -10.46875 L 2.765625 -10.703125 L 2.625 -10.703125 L 2.625 -11.65625 L 3.78125 -11.65625 L 3.78125 -12.625 L 2.15625 -12.625 L 2.15625 -13.328125 L 1.53125 -13.328125 L 1.53125 -14.296875 L 5.734375 -14.296875 L 5.734375 -15.015625 L 0.578125 -15.015625 L 0.578125 -15.96875 L 0.484375 -15.96875 L 0.484375 -16.921875 L 1.1875 -16.921875 L 1.1875 -17.875 L 2.296875 -17.875 L 2.296875 -18.359375 L 0.953125 -18.359375 L 0.953125 -19.078125 L 3.296875 -19.078125 L 3.296875 -19.546875 L 6.734375 -19.546875 L 6.734375 -20.03125 L 2 -20.03125 L 2 -20.265625 L 2.25 -20.265625 L 2.25 -20.5 L 2.671875 -20.5 L 2.671875 -20.75 L 2.71875 -20.75 L 2.71875 -21.21875 L 2.625 -21.21875 L 2.625 -21.9375 L 2.8125 -21.9375 L 2.8125 -22.890625 L 2.578125 -22.890625 L 2.578125 -23.375 L 2.8125 -23.375 L 2.8125 -24.09375 L 2.625 -24.09375 L 2.625 -24.328125 L 2.765625 -24.328125 L 2.765625 -24.8125 L 2.71875 -24.8125 L 2.71875 -25.046875 L 2.53125 -25.046875 L 2.53125 -25.28125 L 2.96875 -25.28125 L 2.96875 -26 L 3.34375 -26 L 3.34375 -26.71875 L 1.09375 -26.71875 L 1.09375 -27.671875 L 1.625 -27.671875 L 1.625 -28.625 L 1.34375 -28.625 L 1.34375 -29.34375 L 2.625 -29.34375 L 2.625 -30.0625 L 3.109375 -30.0625 L 3.109375 -30.78125 L 2.25 -30.78125 L 2.25 -31.265625 L 2.578125 -31.265625 L 2.578125 -31.5 L 2.671875 -31.5 L 2.671875 -32.21875 L 2.765625 -32.21875 C 2.765625 -32.5625 2.910156 -32.878906 3.203125 -33.171875 L 5.78125 -33.171875 C 5.96875 -33.359375 6.238281 -33.453125 6.59375 -33.453125 L 20.75 -33.453125 C 22.113281 -33.453125 23.382812 -33.359375 24.5625 -33.171875 L 22.03125 -33.171875 C 23.3125 -32.984375 24.523438 -32.664062 25.671875 -32.21875 L 25.578125 -32.21875 C 26.117188 -32.019531 26.644531 -31.78125 27.15625 -31.5 L 27.046875 -31.5 L 27.484375 -31.265625 L 27.09375 -31.265625 C 27.257812 -31.191406 27.394531 -31.109375 27.5 -31.015625 C 27.613281 -30.921875 27.734375 -30.84375 27.859375 -30.78125 L 28.71875 -30.78125 C 28.882812 -30.65625 29.046875 -30.535156 29.203125 -30.421875 C 29.359375 -30.304688 29.503906 -30.1875 29.640625 -30.0625 L 29.15625 -30.0625 C 29.3125 -29.9375 29.445312 -29.816406 29.5625 -29.703125 C 29.675781 -29.585938 29.796875 -29.46875 29.921875 -29.34375 L 28.625 -29.34375 C 28.757812 -29.21875 28.875 -29.097656 28.96875 -28.984375 C 29.0625 -28.878906 29.15625 -28.757812 29.25 -28.625 L 29.484375 -28.625 C 29.742188 -28.3125 29.96875 -27.992188 30.15625 -27.671875 L 29.6875 -27.671875 C 29.78125 -27.546875 29.863281 -27.394531 29.9375 -27.21875 C 30.019531 -27.039062 30.109375 -26.875 30.203125 -26.71875 L 32.453125 -26.71875 L 32.734375 -26 L 32.359375 -26 C 32.390625 -25.875 32.425781 -25.753906 32.46875 -25.640625 C 32.519531 -25.523438 32.5625 -25.40625 32.59375 -25.28125 L 32.125 -25.28125 L 32.21875 -25.046875 L 32.40625 -25.046875 C 32.4375 -24.984375 32.453125 -24.90625 32.453125 -24.8125 L 32.59375 -24.328125 L 32.734375 -24.328125 C 32.734375 -24.234375 32.75 -24.15625 32.78125 -24.09375 L 32.84375 -24.09375 C 32.875 -23.96875 32.894531 -23.847656 32.90625 -23.734375 C 32.925781 -23.617188 32.9375 -23.5 32.9375 -23.375 L 32.3125 -23.375 C 32.3125 -23.3125 32.3125 -23.226562 32.3125 -23.125 C 32.3125 -23.03125 32.328125 -22.953125 32.359375 -22.890625 L 32.640625 -22.890625 C 32.640625 -22.734375 32.644531 -22.570312 32.65625 -22.40625 C 32.675781 -22.25 32.6875 -22.09375 32.6875 -21.9375 L 32.6875 -21.453125 L 32.984375 -21.453125 L 32.984375 -21.21875 L 32.6875 -21.21875 L 32.6875 -20.75 L 32.21875 -20.75 C 32.21875 -20.71875 32.207031 -20.679688 32.1875 -20.640625 C 32.175781 -20.609375 32.171875 -20.5625 32.171875 -20.5 L 32.640625 -20.5 C 32.640625 -20.46875 32.628906 -20.4375 32.609375 -20.40625 C 32.597656 -20.375 32.59375 -20.328125 32.59375 -20.265625 L 34.84375 -20.265625 C 34.8125 -20.203125 34.796875 -20.125 34.796875 -20.03125 L 35.421875 -20.03125 L 35.375 -19.546875 L 33.171875 -19.546875 C 33.109375 -19.359375 33.078125 -19.203125 33.078125 -19.078125 Z M 13.953125 -20.03125 L 18.6875 -20.03125 L 18.6875 -19.546875 L 15.25 -19.546875 L 15.25 -19.5 L 18.734375 -19.5 C 18.960938 -19.5 19.140625 -19.515625 19.265625 -19.546875 L 21.453125 -19.546875 C 21.804688 -19.640625 22.128906 -19.800781 22.421875 -20.03125 L 21.75 -20.03125 L 21.984375 -20.265625 L 19.734375 -20.265625 C 19.835938 -20.359375 19.90625 -20.4375 19.9375 -20.5 L 19.453125 -20.5 L 19.59375 -20.75 L 20.078125 -20.75 L 20.21875 -21.21875 L 20.453125 -21.21875 C 20.484375 -21.28125 20.5 -21.359375 20.5 -21.453125 L 20.21875 -21.453125 L 20.265625 -21.9375 C 20.265625 -22.257812 20.21875 -22.578125 20.125 -22.890625 L 19.828125 -22.890625 C 19.796875 -22.953125 19.769531 -23.03125 19.75 -23.125 C 19.738281 -23.226562 19.703125 -23.3125 19.640625 -23.375 L 20.3125 -23.375 C 20.1875 -23.625 20.007812 -23.863281 19.78125 -24.09375 L 19.6875 -24.09375 C 19.59375 -24.1875 19.484375 -24.265625 19.359375 -24.328125 L 19.21875 -24.328125 C 18.894531 -24.484375 18.554688 -24.5625 18.203125 -24.5625 L 14.71875 -24.5625 L 14.71875 -24.328125 L 14.578125 -24.328125 L 14.578125 -24.09375 L 14.765625 -24.09375 L 14.765625 -23.375 L 14.53125 -23.375 L 14.53125 -22.890625 L 14.765625 -22.890625 L 14.765625 -21.9375 L 14.578125 -21.9375 L 14.578125 -21.21875 L 14.671875 -21.21875 L 14.671875 -20.75 L 14.625 -20.75 L 14.625 -20.5 L 14.203125 -20.5 L 14.203125 -20.265625 L 13.953125 -20.265625 Z M 17.734375 -9.03125 L 17.546875 -9.515625 L 17.015625 -9.515625 L 16.640625 -10.421875 L 14.671875 -10.421875 L 14.671875 -9.515625 L 15.109375 -9.515625 L 15.109375 -9.03125 Z M 13.484375 -9.03125 L 13.484375 -8.3125 L 14.390625 -8.3125 L 14.09375 -9.03125 Z M 17.828125 -8.078125 L 17.734375 -8.3125 L 14.765625 -8.3125 L 14.765625 -8.078125 L 15.0625 -8.078125 L 15.0625 -7.84375 L 15.109375 -7.84375 L 15.109375 -7.125 L 17.203125 -7.125 L 17.203125 -6.171875 L 13.53125 -6.171875 L 13.53125 -5.453125 L 16.25 -5.453125 L 16.25 -4.734375 L 14.578125 -4.734375 L 14.578125 -4.015625 L 15.578125 -4.015625 L 15.578125 -3.53125 L 12.578125 -3.53125 L 12.578125 -3.296875 L 19.3125 -3.296875 L 19.171875 -3.53125 L 19.3125 -3.53125 L 19.078125 -4.015625 L 18.6875 -4.015625 L 18.40625 -4.734375 L 18.0625 -5.453125 L 19.59375 -5.453125 L 19.265625 -6.171875 L 22.375 -6.171875 L 21.9375 -7.125 L 17.203125 -7.125 L 16.921875 -7.84375 L 17.96875 -7.84375 Z M 17.828125 -8.078125 "/></g></g></g><g fill="#222222" fill-opacity="1"><g transform="translate(263.721919, 46.125892)"><g><path d="M 34.171875 -29.109375 L 25.28125 -29.109375 L 25.28125 -28.15625 L 28.671875 -28.15625 L 28.671875 -27.4375 L 32.359375 -27.4375 L 32.359375 -26.71875 L 32.265625 -26.71875 L 32.265625 -26 L 33.65625 -26 L 33.65625 -25.046875 L 28.4375 -25.046875 L 28.4375 -24.8125 L 27.4375 -24.8125 L 27.4375 -24.46875 C 27.4375 -24.25 27.390625 -24.039062 27.296875 -23.84375 L 30.6875 -23.84375 C 30.457031 -23.40625 30.09375 -23.1875 29.59375 -23.1875 L 21.65625 -23.1875 L 21.65625 -23.140625 L 22.125 -23.140625 L 22.125 -22.171875 L 22.21875 -22.171875 L 22.21875 -21.21875 L 21.984375 -21.21875 L 21.984375 -20.265625 L 21.359375 -20.265625 L 21.359375 -19.546875 L 23.75 -19.546875 L 23.75 -19.078125 L 21.75 -19.078125 L 21.75 -18.359375 L 20.703125 -18.359375 L 20.703125 -17.390625 L 22.515625 -17.390625 L 22.515625 -16.921875 L 22.171875 -16.921875 L 22.171875 -15.96875 L 21.84375 -15.96875 L 21.84375 -15.015625 L 21.265625 -15.015625 L 21.265625 -14.046875 L 20.75 -14.046875 L 20.75 -13.328125 L 22.515625 -13.328125 L 22.515625 -12.625 L 21.796875 -12.625 L 21.796875 -11.65625 L 22.078125 -11.65625 L 22.078125 -11.421875 L 22.421875 -11.421875 L 22.421875 -10.953125 L 24.8125 -10.953125 L 24.8125 -10.234375 L 23.1875 -10.234375 L 23.1875 -9.265625 L 23.90625 -9.265625 L 23.90625 -8.3125 L 21.890625 -8.3125 L 21.890625 -7.359375 L 22.703125 -7.359375 L 22.703125 -6.875 L 23.03125 -6.875 L 23.03125 -6.171875 L 23.796875 -6.171875 L 23.796875 -5.203125 L 23.515625 -5.203125 L 23.515625 -4.5 L 22.265625 -4.5 L 22.265625 -3.78125 L 22.125 -3.78125 L 22.125 -3.296875 L 22.078125 -3.296875 L 22.078125 -2.578125 L 22.609375 -2.578125 L 22.609375 -1.859375 L 22.171875 -1.859375 L 22.171875 -1.296875 C 22.171875 -1.128906 22.15625 -1 22.125 -0.90625 L 21.65625 -0.90625 C 21.5625 -0.59375 21.382812 -0.351562 21.125 -0.1875 L 21.21875 -0.1875 C 21.0625 -0.0625 20.835938 0 20.546875 0 L 11 0 C 10.738281 0 10.5 -0.0625 10.28125 -0.1875 L 10.1875 -0.1875 C 9.957031 -0.351562 9.78125 -0.59375 9.65625 -0.90625 L 10.078125 -0.90625 C 10.046875 -1 10.03125 -1.128906 10.03125 -1.296875 L 10.03125 -1.859375 L 10.46875 -1.859375 L 10.46875 -2.578125 L 9.9375 -2.578125 L 9.9375 -3.296875 L 9.984375 -3.296875 L 9.984375 -3.78125 L 10.140625 -3.78125 L 10.140625 -4.5 L 11.375 -4.5 L 11.375 -5.203125 L 11.65625 -5.203125 L 11.65625 -6.171875 L 10.890625 -6.171875 L 10.890625 -6.875 L 10.5625 -6.875 L 10.5625 -7.359375 L 9.75 -7.359375 L 9.75 -8.3125 L 11.765625 -8.3125 L 11.765625 -9.265625 L 11.046875 -9.265625 L 11.046875 -10.234375 L 12.671875 -10.234375 L 12.671875 -10.953125 L 10.28125 -10.953125 L 10.28125 -11.421875 L 9.9375 -11.421875 L 9.9375 -11.65625 L 9.65625 -11.65625 L 9.65625 -12.625 L 10.375 -12.625 L 10.375 -13.328125 L 8.609375 -13.328125 L 8.609375 -14.046875 L 9.125 -14.046875 L 9.125 -15.015625 L 9.703125 -15.015625 L 9.703125 -15.96875 L 10.03125 -15.96875 L 10.03125 -16.921875 L 10.375 -16.921875 L 10.375 -17.390625 L 8.5625 -17.390625 L 8.5625 -18.359375 L 9.609375 -18.359375 L 9.609375 -19.078125 L 11.609375 -19.078125 L 11.609375 -19.546875 L 9.21875 -19.546875 L 9.21875 -20.265625 L 9.84375 -20.265625 L 9.84375 -21.21875 L 10.078125 -21.21875 L 10.078125 -22.171875 L 9.984375 -22.171875 L 9.984375 -23.140625 L 9.515625 -23.140625 L 9.515625 -23.1875 L 1.578125 -23.1875 C 1.097656 -23.1875 0.71875 -23.40625 0.4375 -23.84375 L -2.96875 -23.84375 C -3 -23.945312 -3.035156 -24.046875 -3.078125 -24.140625 C -3.128906 -24.234375 -3.15625 -24.34375 -3.15625 -24.46875 L -3.15625 -24.8125 L -2.15625 -24.8125 L -2.15625 -25.046875 L 3.0625 -25.046875 L 3.0625 -26 L 1.671875 -26 L 1.671875 -26.71875 L 1.765625 -26.71875 L 1.765625 -27.4375 L -1.90625 -27.4375 L -1.90625 -28.15625 L -5.3125 -28.15625 L -5.3125 -29.109375 L 3.578125 -29.109375 L 3.578125 -29.828125 L -1.390625 -29.828125 L -1.390625 -30.78125 L -0.4375 -30.78125 L -0.4375 -31.734375 L 0.8125 -31.734375 L 0.8125 -31.96875 L 1.53125 -31.96875 L 1.53125 -32.171875 C 1.53125 -32.484375 1.625 -32.738281 1.8125 -32.9375 L 0.765625 -32.9375 C 1.015625 -33.28125 1.363281 -33.453125 1.8125 -33.453125 L 29.828125 -33.453125 C 30.273438 -33.453125 30.625 -33.28125 30.875 -32.9375 L 31.875 -32.9375 C 32.039062 -32.707031 32.125 -32.453125 32.125 -32.171875 L 32.125 -31.96875 L 31.40625 -31.96875 L 31.40625 -31.734375 L 30.15625 -31.734375 L 30.15625 -30.78125 L 29.203125 -30.78125 L 29.203125 -29.828125 L 34.171875 -29.828125 Z M 34.171875 -29.109375 "/></g></g></g><g fill="#222222" fill-opacity="1"><g transform="translate(295.933555, 46.125892)"><g><path d="M 32.84375 -8.3125 L 36.609375 -8.3125 L 36.609375 -7.59375 L 29.34375 -7.59375 L 29.34375 -6.640625 L 34.03125 -6.640625 L 34.03125 -5.6875 L 29.921875 -5.6875 L 29.921875 -4.734375 L 30.453125 -4.734375 L 30.453125 -4.015625 L 30.109375 -4.015625 L 30.109375 -3.53125 L 29.109375 -3.53125 L 29.109375 -3.0625 L 29.0625 -3.0625 L 29.0625 -2.578125 L 30.0625 -2.578125 L 30.0625 -1.625 L 31.453125 -1.625 L 31.453125 -1.296875 C 31.453125 -1.222656 31.4375 -1.171875 31.40625 -1.140625 L 22.890625 -1.140625 C 22.859375 -1.078125 22.84375 -1 22.84375 -0.90625 L 26.140625 -0.90625 C 26.046875 -0.59375 25.875 -0.351562 25.625 -0.1875 L 24.71875 -0.1875 C 24.550781 -0.0625 24.328125 0 24.046875 0 L -0.859375 0 C -1.117188 0 -1.359375 -0.0625 -1.578125 -0.1875 L -0.671875 -0.1875 C -0.890625 -0.351562 -1.0625 -0.59375 -1.1875 -0.90625 L -4.546875 -0.90625 C -4.578125 -0.96875 -4.59375 -1.046875 -4.59375 -1.140625 L 3.96875 -1.140625 L 3.96875 -1.625 L 2.578125 -1.625 L 2.578125 -2.578125 L 1.578125 -2.578125 L 1.578125 -3.0625 L 1.625 -3.0625 L 1.625 -3.53125 L 2.625 -3.53125 L 2.625 -4.015625 L 2.96875 -4.015625 L 2.96875 -4.734375 L 2.4375 -4.734375 L 2.4375 -5.6875 L 6.546875 -5.6875 L 6.546875 -6.640625 L 1.859375 -6.640625 L 1.859375 -7.59375 L 9.125 -7.59375 L 9.125 -8.3125 L 5.359375 -8.3125 L 5.359375 -8.796875 L 6.453125 -8.796875 L 6.453125 -9.265625 L 6.9375 -9.265625 L 6.9375 -9.75 L 1.625 -9.75 L 1.625 -10.234375 L 0.375 -10.234375 L 0.375 -10.953125 L 4.828125 -10.953125 L 4.828125 -11.1875 L 1.296875 -11.1875 L 1.296875 -11.65625 L 2.34375 -11.65625 L 2.34375 -12.140625 L 3.109375 -12.140625 L 3.109375 -12.859375 L 3.015625 -12.859375 L 3.015625 -13.8125 L 2.53125 -13.8125 L 2.53125 -14.765625 L 1.8125 -14.765625 L 1.8125 -15.25 L 2.390625 -15.25 L 2.390625 -16.203125 L 1.859375 -16.203125 L 1.859375 -16.6875 L 2.625 -16.6875 L 2.625 -17.390625 L 2.8125 -17.390625 L 2.8125 -18.109375 L 3.6875 -18.109375 L 3.6875 -18.359375 L 2.875 -18.359375 L 2.875 -19.3125 L 2.15625 -19.3125 L 2.15625 -20.03125 L 2.34375 -20.03125 L 2.34375 -20.75 L 2.4375 -20.75 L 2.4375 -21.703125 L 3.15625 -21.703125 L 3.15625 -22.65625 L 2.109375 -22.65625 L 2.109375 -23.609375 L 2.25 -23.609375 L 2.25 -24.5625 L 3.578125 -24.5625 L 3.578125 -25.28125 L 2.875 -25.28125 L 2.875 -26 L 2.484375 -26 L 2.484375 -26.234375 L 4.5 -26.234375 L 4.5 -26.953125 L 8.03125 -26.953125 L 8.03125 -27.4375 L 6.59375 -27.4375 L 6.59375 -27.90625 L 1.953125 -27.90625 L 1.953125 -28.15625 L 2.484375 -28.15625 L 2.484375 -28.875 L 2.53125 -28.875 L 2.53125 -29.59375 L 2.671875 -29.59375 L 2.671875 -30.546875 L 2.625 -30.546875 L 2.625 -31.734375 L 2.53125 -31.734375 L 2.53125 -32.171875 C 2.53125 -32.296875 2.546875 -32.390625 2.578125 -32.453125 L 2.109375 -32.453125 C 2.234375 -33.117188 2.644531 -33.453125 3.34375 -33.453125 L 27.859375 -33.453125 C 28.597656 -33.453125 29.015625 -33.117188 29.109375 -32.453125 L 29.59375 -32.453125 C 29.625 -32.390625 29.640625 -32.296875 29.640625 -32.171875 L 29.640625 -31.734375 L 29.734375 -31.734375 L 29.734375 -30.546875 L 29.78125 -30.546875 L 29.78125 -29.59375 L 29.640625 -29.59375 L 29.640625 -28.875 L 29.59375 -28.875 L 29.59375 -28.15625 L 29.0625 -28.15625 L 29.0625 -27.90625 L 33.703125 -27.90625 L 33.703125 -27.4375 L 35.125 -27.4375 L 35.125 -26.953125 L 31.59375 -26.953125 L 31.59375 -26.234375 L 29.59375 -26.234375 L 29.59375 -26 L 29.96875 -26 L 29.96875 -25.28125 L 30.6875 -25.28125 C 30.625 -24.96875 30.507812 -24.726562 30.34375 -24.5625 L 29.015625 -24.5625 C 28.785156 -24.28125 28.46875 -24.140625 28.0625 -24.140625 L 13.71875 -24.140625 L 13.71875 -23.609375 L 13.578125 -23.609375 L 13.578125 -22.65625 L 14.625 -22.65625 L 14.625 -21.703125 L 13.90625 -21.703125 L 13.90625 -21.125 L 27.203125 -21.125 C 27.546875 -21.125 27.847656 -21 28.109375 -20.75 L 28.015625 -20.75 C 28.171875 -20.582031 28.28125 -20.34375 28.34375 -20.03125 L 28.203125 -20.03125 L 28.203125 -19.3125 L 28.921875 -19.3125 L 28.921875 -18.359375 L 29.734375 -18.359375 L 29.734375 -18.109375 L 28.875 -18.109375 L 28.875 -17.390625 L 28.671875 -17.390625 L 28.671875 -16.6875 L 27.90625 -16.6875 L 27.90625 -16.203125 L 28.4375 -16.203125 L 28.4375 -15.25 L 27.859375 -15.25 L 27.859375 -14.765625 L 28.578125 -14.765625 L 28.578125 -13.8125 L 29.0625 -13.8125 L 29.0625 -13.625 C 29.0625 -13.269531 28.984375 -13.015625 28.828125 -12.859375 L 28.921875 -12.859375 C 28.660156 -12.503906 28.304688 -12.328125 27.859375 -12.328125 L 14.578125 -12.328125 L 14.578125 -12.140625 L 13.8125 -12.140625 L 13.8125 -11.65625 L 12.765625 -11.65625 L 12.765625 -11.1875 L 16.296875 -11.1875 L 16.296875 -10.953125 L 11.859375 -10.953125 L 11.859375 -10.234375 L 13.09375 -10.234375 L 13.09375 -9.75 L 18.40625 -9.75 L 18.40625 -9.328125 L 33.125 -9.328125 C 33.28125 -9.328125 33.40625 -9.304688 33.5 -9.265625 L 32.984375 -9.265625 C 33.296875 -9.171875 33.535156 -9.015625 33.703125 -8.796875 L 32.59375 -8.796875 C 32.71875 -8.609375 32.800781 -8.445312 32.84375 -8.3125 Z M 32.84375 -8.3125 "/></g></g></g><g fill="#222222" fill-opacity="1"><g transform="translate(327.810646, 46.125892)"><g><path d="M 46.5 -11.421875 L 36.03125 -11.421875 L 36.03125 -10.953125 L 44.5 -10.953125 L 44.5 -9.984375 L 40.765625 -9.984375 L 40.765625 -9.75 L 37.046875 -9.75 L 37.046875 -9.03125 L 34.609375 -9.03125 L 34.609375 -8.3125 L 33.546875 -8.3125 L 33.546875 -7.59375 L 28.53125 -7.59375 L 28.53125 -6.640625 L 36.03125 -6.640625 L 36.03125 -5.6875 L 32.21875 -5.6875 L 32.21875 -5.203125 L 35.5625 -5.203125 L 35.5625 -4.734375 L 37.5625 -4.734375 L 37.5625 -4.015625 L 38.28125 -4.015625 L 38.28125 -3.296875 L 38.953125 -3.296875 L 38.953125 -2.8125 L 39 -2.8125 L 39 -1.859375 L 40 -1.859375 L 40 -1.625 L 39.484375 -1.625 L 39.484375 -1.390625 L 38.28125 -1.390625 L 38.28125 -1.140625 L 35.515625 -1.140625 L 35.375 -0.671875 L 33.890625 -0.671875 C 33.765625 -0.441406 33.617188 -0.28125 33.453125 -0.1875 L 35.21875 -0.1875 C 35.0625 -0.0625 34.84375 0 34.5625 0 L 25.90625 0 C 25.613281 0 25.390625 -0.0625 25.234375 -0.1875 L 23.421875 -0.1875 C 23.265625 -0.28125 23.117188 -0.441406 22.984375 -0.671875 L 24.421875 -0.671875 C 24.328125 -0.828125 24.28125 -0.984375 24.28125 -1.140625 L 27.046875 -1.140625 L 27.046875 -1.390625 L 28.25 -1.390625 L 28.25 -1.625 L 28.78125 -1.625 L 28.78125 -1.859375 L 27.765625 -1.859375 L 27.765625 -2.8125 L 27.71875 -2.8125 L 27.71875 -3.296875 L 27.046875 -3.296875 L 27.046875 -4.015625 L 26.34375 -4.015625 L 26.34375 -4.734375 L 24.328125 -4.734375 L 24.328125 -5.203125 L 20.984375 -5.203125 L 20.984375 -5.6875 L 24.8125 -5.6875 L 24.8125 -6.640625 L 7.890625 -6.640625 L 7.890625 -5.6875 L 14.71875 -5.6875 L 14.71875 -5.203125 L 13.71875 -5.203125 L 13.71875 -4.015625 L 13.90625 -4.015625 L 13.90625 -3.296875 L 13 -3.296875 L 13 -2.8125 L 12.671875 -2.8125 L 12.671875 -1.859375 L 12.8125 -1.859375 L 12.8125 -1.625 L 16.34375 -1.625 L 16.34375 -1.390625 L 13.390625 -1.390625 L 13.390625 -1.140625 L 15.109375 -1.140625 C 15.109375 -0.984375 15.054688 -0.828125 14.953125 -0.671875 L 12.328125 -0.671875 C 12.234375 -0.441406 12.078125 -0.28125 11.859375 -0.1875 L 11.5625 -0.1875 C 11.40625 -0.0625 11.164062 0 10.84375 0 L 2.203125 0 C 1.910156 0 1.6875 -0.0625 1.53125 -0.1875 L 1.859375 -0.1875 C 1.765625 -0.25 1.675781 -0.320312 1.59375 -0.40625 C 1.519531 -0.488281 1.453125 -0.578125 1.390625 -0.671875 L 4.0625 -0.671875 C 3.96875 -0.828125 3.921875 -0.984375 3.921875 -1.140625 L 2.15625 -1.140625 L 2.15625 -1.390625 L 5.109375 -1.390625 L 5.109375 -1.625 L 1.578125 -1.625 L 1.578125 -1.859375 L 1.4375 -1.859375 L 1.4375 -2.8125 L 1.765625 -2.8125 L 1.765625 -3.296875 L 2.671875 -3.296875 L 2.671875 -4.015625 L 2.484375 -4.015625 L 2.484375 -5.203125 L 3.484375 -5.203125 L 3.484375 -5.6875 L -3.34375 -5.6875 L -3.34375 -6.640625 L 6.984375 -6.640625 L 6.984375 -7.59375 L -2.4375 -7.59375 L -2.4375 -8.3125 L -2.671875 -8.3125 L -2.671875 -9.03125 L 1.25 -9.03125 L 1.25 -9.75 L 2.625 -9.75 L 2.625 -9.984375 L -0.4375 -9.984375 L -0.4375 -10.953125 L 6.265625 -10.953125 L 6.265625 -11.421875 L 10.953125 -11.421875 L 10.796875 -11.65625 L 2.296875 -11.65625 L 2.296875 -11.90625 L 3.875 -11.90625 L 3.875 -12.140625 L 2.671875 -12.140625 L 2.671875 -13.09375 L 2.71875 -13.09375 L 2.71875 -13.578125 L 3.828125 -13.578125 L 3.828125 -14.296875 L 3.578125 -14.296875 L 3.578125 -15.25 L 2.296875 -15.25 L 2.296875 -15.484375 L -2 -15.484375 L -2 -15.96875 L 1.71875 -15.96875 L 1.71875 -16.203125 L 1.578125 -16.203125 L 1.578125 -16.6875 L 3.6875 -16.6875 L 3.6875 -17.15625 L 4.828125 -17.15625 L 4.828125 -17.875 L -2.71875 -17.875 L -2.71875 -18.828125 L 3.296875 -18.828125 L 3.296875 -19.3125 L -2.0625 -19.3125 L -2.0625 -20.03125 L 3.484375 -20.03125 L 3.484375 -20.5 L 2.8125 -20.5 L 2.8125 -20.984375 L 1 -20.984375 L 1 -21.21875 L 1.90625 -21.21875 L 1.90625 -21.9375 L 7.40625 -21.9375 L 7.40625 -22.65625 L 6.59375 -22.65625 L 6.59375 -23.140625 L 2.0625 -23.140625 L 2.0625 -23.375 L 1.8125 -23.375 L 1.8125 -24.09375 L 4.0625 -24.09375 L 4.0625 -25.046875 L -0.90625 -25.046875 L -0.90625 -25.53125 L 0.8125 -25.53125 L 0.8125 -25.765625 L 1.296875 -25.765625 L 1.296875 -26.234375 L 0.1875 -26.234375 L 0.1875 -26.953125 L 4.5 -26.953125 L 4.5 -27.671875 L 2.296875 -27.671875 L 2.296875 -28.625 L 5.921875 -28.625 L 5.921875 -28.875 L 4.78125 -28.875 L 4.78125 -29.828125 L 9.03125 -29.828125 L 9.03125 -30.546875 L -0.953125 -30.546875 L -0.953125 -31.265625 L 9.65625 -31.265625 L 9.65625 -31.96875 L 4.96875 -31.96875 L 4.96875 -32.453125 L 1.390625 -32.453125 C 1.421875 -32.609375 1.472656 -32.742188 1.546875 -32.859375 C 1.628906 -32.972656 1.71875 -33.078125 1.8125 -33.171875 L 2.0625 -33.171875 C 2.25 -33.359375 2.519531 -33.453125 2.875 -33.453125 L 10.421875 -33.453125 C 10.867188 -33.453125 11.234375 -33.359375 11.515625 -33.171875 L 11.28125 -33.171875 C 11.46875 -33.078125 11.625 -32.960938 11.75 -32.828125 C 11.882812 -32.703125 11.984375 -32.578125 12.046875 -32.453125 L 15.671875 -32.453125 L 15.875 -32.171875 L 15.96875 -31.96875 L 20.703125 -31.96875 L 21.125 -31.265625 L 10.515625 -31.265625 L 10.953125 -30.546875 L 20.890625 -30.546875 L 21.3125 -29.828125 L 17.109375 -29.828125 L 17.6875 -28.875 L 18.828125 -28.875 L 18.96875 -28.625 L 15.34375 -28.625 L 15.921875 -27.671875 L 18.0625 -27.671875 L 18.5 -26.953125 L 14.25 -26.953125 L 14.671875 -26.234375 L 15.765625 -26.234375 L 16.0625 -25.765625 L 15.578125 -25.765625 L 15.71875 -25.53125 L 14 -25.53125 L 14.296875 -25.046875 L 19.265625 -25.046875 L 19.828125 -24.09375 L 17.59375 -24.09375 L 18.015625 -23.375 L 18.265625 -23.375 L 18.40625 -23.140625 L 21.9375 -23.140625 L 22.078125 -23.375 L 20.796875 -23.375 L 21.21875 -24.09375 L 22.796875 -24.09375 L 23.375 -25.046875 L 22.515625 -25.046875 L 22.796875 -25.53125 L 18.921875 -25.53125 L 19.078125 -25.765625 L 23.90625 -25.765625 L 24.1875 -26.234375 L 23.796875 -26.234375 L 24.234375 -26.953125 L 27.09375 -26.953125 L 27.53125 -27.671875 L 27.671875 -27.671875 L 28.25 -28.625 L 26.046875 -28.625 L 26.1875 -28.875 L 31.21875 -28.875 L 31.78125 -29.828125 L 31.5 -29.828125 L 31.921875 -30.546875 L 24.5625 -30.546875 L 25 -31.265625 L 32.078125 -31.265625 L 32.5 -31.96875 L 27.296875 -31.96875 L 27.390625 -32.171875 C 27.453125 -32.296875 27.515625 -32.390625 27.578125 -32.453125 L 27.671875 -32.453125 C 27.765625 -32.578125 27.875 -32.703125 28 -32.828125 C 28.132812 -32.960938 28.28125 -33.078125 28.4375 -33.171875 L 28.34375 -33.171875 C 28.632812 -33.359375 29 -33.453125 29.4375 -33.453125 L 37 -33.453125 C 37.3125 -33.453125 37.582031 -33.359375 37.8125 -33.171875 L 37.953125 -33.171875 C 38.046875 -33.078125 38.128906 -32.972656 38.203125 -32.859375 C 38.285156 -32.742188 38.34375 -32.609375 38.375 -32.453125 L 38.28125 -32.453125 L 38.28125 -31.96875 L 43.546875 -31.96875 L 43.546875 -31.265625 L 36.46875 -31.265625 L 36.46875 -30.546875 L 43.828125 -30.546875 L 43.828125 -29.828125 L 44.109375 -29.828125 L 44.109375 -28.875 L 39.09375 -28.875 L 39.09375 -28.625 L 41.296875 -28.625 L 41.296875 -27.671875 L 41.15625 -27.671875 L 41.15625 -26.953125 L 38.28125 -26.953125 L 38.28125 -26.234375 L 38.671875 -26.234375 L 38.671875 -25.765625 L 33.84375 -25.765625 L 33.84375 -25.53125 L 37.71875 -25.53125 L 37.71875 -25.046875 L 38.578125 -25.046875 L 38.578125 -24.09375 L 37.046875 -24.09375 L 37.046875 -23.375 L 38.28125 -23.375 L 38.28125 -23.140625 L 40.53125 -23.140625 L 40.53125 -22.65625 L 35.609375 -22.65625 L 35.609375 -21.9375 L 39.140625 -21.9375 L 39.140625 -21.21875 L 38.28125 -21.21875 L 38.28125 -20.984375 L 38.46875 -20.984375 L 38.46875 -20.5 L 39.140625 -20.5 L 39.140625 -20.03125 L 33.59375 -20.03125 L 33.59375 -19.3125 L 38.953125 -19.3125 L 38.953125 -18.828125 L 32.9375 -18.828125 L 32.9375 -17.875 L 40.484375 -17.875 L 40.484375 -17.15625 L 39.34375 -17.15625 L 39.34375 -16.6875 L 37.234375 -16.6875 L 37.234375 -16.203125 L 37.375 -16.203125 L 37.375 -15.96875 L 33.65625 -15.96875 L 33.65625 -15.484375 L 37.953125 -15.484375 L 37.953125 -15.25 L 39.234375 -15.25 L 39.234375 -14.296875 L 38.140625 -14.296875 L 38.140625 -13.578125 L 37.328125 -13.578125 L 37.328125 -13.09375 L 38.28125 -13.09375 L 38.28125 -12.140625 L 38.71875 -12.140625 L 38.71875 -11.90625 L 40.765625 -11.90625 L 40.765625 -11.65625 L 46.5 -11.65625 Z M 24.140625 -23.140625 L 22.9375 -23.140625 L 23.234375 -22.65625 L 23.84375 -22.65625 Z M 18.5 -21.21875 L 18.640625 -20.984375 L 20.5 -20.984375 L 20.640625 -20.703125 L 20.84375 -20.984375 L 20.640625 -20.984375 L 20.796875 -21.21875 L 21.609375 -21.21875 L 22.03125 -21.9375 L 19.015625 -21.9375 L 19.453125 -21.21875 Z M 25.578125 -13.578125 L 26.90625 -13.578125 L 26.90625 -14.296875 L 26 -14.296875 Z M 13.90625 -12.140625 L 15.109375 -12.140625 L 15.109375 -11.90625 L 13.53125 -11.90625 L 13.53125 -11.65625 L 16.78125 -11.65625 L 16.640625 -11.90625 L 15.875 -11.90625 L 15.671875 -12.140625 L 15.25 -12.140625 L 14.671875 -13.09375 L 14.765625 -13.09375 L 14.484375 -13.578125 L 13.953125 -13.578125 L 13.953125 -13.09375 L 13.90625 -13.09375 Z M 35.28125 -11.421875 L 35.28125 -11.65625 L 29.53125 -11.65625 L 29.53125 -11.90625 L 27.484375 -11.90625 L 27.484375 -12.140625 L 27.046875 -12.140625 L 27.046875 -13.09375 L 26.28125 -13.09375 L 25.671875 -12.140625 L 26.140625 -12.140625 L 26 -11.90625 L 26.765625 -11.90625 L 26.625 -11.65625 L 22.703125 -11.65625 L 22.703125 -11.421875 L 17.5 -11.421875 L 17.5 -10.953125 L 10.796875 -10.953125 L 10.796875 -9.984375 L 13.859375 -9.984375 L 13.859375 -9.75 L 12.46875 -9.75 L 12.46875 -9.03125 L 8.5625 -9.03125 L 8.5625 -8.3125 L 8.796875 -8.3125 L 8.796875 -7.59375 L 22.328125 -7.59375 L 22.328125 -8.3125 L 23.375 -8.3125 L 23.375 -9.03125 L 19.359375 -9.03125 C 19.265625 -8.90625 19.164062 -8.773438 19.0625 -8.640625 C 18.96875 -8.515625 18.84375 -8.40625 18.6875 -8.3125 L 18.546875 -8.3125 C 18.253906 -8.125 17.9375 -8.03125 17.59375 -8.03125 L 14.25 -8.03125 C 13.863281 -8.03125 13.523438 -8.125 13.234375 -8.3125 L 13.390625 -8.3125 C 13.253906 -8.40625 13.128906 -8.515625 13.015625 -8.640625 C 12.910156 -8.773438 12.8125 -8.90625 12.71875 -9.03125 L 17.640625 -9.03125 L 17.5 -9.21875 L 17.15625 -9.75 L 15.4375 -9.75 L 15.296875 -9.984375 L 18.640625 -9.984375 L 18.015625 -10.953125 L 23.609375 -10.953125 L 23.328125 -11.421875 Z M 33.265625 -9.984375 L 33.265625 -10.953125 L 27 -10.953125 L 26.4375 -9.984375 L 23.140625 -9.984375 L 22.984375 -9.75 L 24.71875 -9.75 L 24.375 -9.21875 L 24.234375 -9.03125 L 25.8125 -9.03125 L 25.8125 -9.75 L 29.53125 -9.75 L 29.53125 -9.984375 Z M 33.265625 -9.984375 "/></g></g></g></svg>